<?xml version="1.0" encoding="utf-8" standalone="no"?>
<!DOCTYPE svg PUBLIC "-//W3C//DTD SVG 1.1//EN"
  "http://www.w3.org/Graphics/SVG/1.1/DTD/svg11.dtd">
<svg xmlns:xlink="http://www.w3.org/1999/xlink" width="1008pt" height="720pt" viewBox="0 0 1008 720" xmlns="http://www.w3.org/2000/svg" version="1.1">
 <metadata>
  <rdf:RDF xmlns:dc="http://purl.org/dc/elements/1.1/" xmlns:cc="http://creativecommons.org/ns#" xmlns:rdf="http://www.w3.org/1999/02/22-rdf-syntax-ns#">
   <cc:Work>
    <dc:type rdf:resource="http://purl.org/dc/dcmitype/StillImage"/>
    <dc:date>2025-03-07T20:59:07.504755</dc:date>
    <dc:format>image/svg+xml</dc:format>
    <dc:creator>
     <cc:Agent>
      <dc:title>Matplotlib v3.10.0, https://matplotlib.org/</dc:title>
     </cc:Agent>
    </dc:creator>
   </cc:Work>
  </rdf:RDF>
 </metadata>
 <defs>
  <style type="text/css">*{stroke-linejoin: round; stroke-linecap: butt}</style>
 </defs>
 <g id="figure_1">
  <g id="patch_1">
   <path d="M 0 720 
L 1008 720 
L 1008 0 
L 0 0 
z
" style="fill: #ffffff"/>
  </g>
  <g id="axes_1">
   <g id="patch_2">
    <path d="M 809.995 346.085 
C 809.995 305.902105 802.079846 266.109938 786.702518 228.985783 
C 771.325189 191.861629 748.784737 158.127458 720.37114 129.71386 
C 691.957542 101.300263 658.223371 78.759811 621.099217 63.382482 
C 583.975062 48.005154 544.182895 40.09 504 40.09 
C 463.817105 40.09 424.024938 48.005154 386.900783 63.382482 
C 349.776629 78.759811 316.042458 101.300263 287.62886 129.71386 
C 259.215263 158.127458 236.674811 191.861629 221.297482 228.985783 
C 205.920154 266.109938 198.005 305.902105 198.005 346.085 
C 198.005 386.267895 205.920154 426.060062 221.297482 463.184217 
C 236.674811 500.308371 259.215263 534.042542 287.62886 562.45614 
C 316.042458 590.869737 349.776629 613.410189 386.900783 628.787518 
C 424.024938 644.164846 463.817105 652.08 504 652.08 
C 544.182895 652.08 583.975062 644.164846 621.099217 628.787518 
C 658.223371 613.410189 691.957542 590.869737 720.37114 562.45614 
C 748.784737 534.042542 771.325189 500.308371 786.702518 463.184217 
C 802.079846 426.060062 809.995 386.267895 809.995 346.085 
M 504 346.085 
C 504 346.085 504 346.085 504 346.085 
C 504 346.085 504 346.085 504 346.085 
C 504 346.085 504 346.085 504 346.085 
C 504 346.085 504 346.085 504 346.085 
C 504 346.085 504 346.085 504 346.085 
C 504 346.085 504 346.085 504 346.085 
C 504 346.085 504 346.085 504 346.085 
C 504 346.085 504 346.085 504 346.085 
C 504 346.085 504 346.085 504 346.085 
C 504 346.085 504 346.085 504 346.085 
C 504 346.085 504 346.085 504 346.085 
C 504 346.085 504 346.085 504 346.085 
C 504 346.085 504 346.085 504 346.085 
C 504 346.085 504 346.085 504 346.085 
C 504 346.085 504 346.085 504 346.085 
C 504 346.085 504 346.085 504 346.085 
z
" style="fill: #eaeaf2"/>
   </g>
   <g id="matplotlib.axis_1">
    <g id="xtick_1">
     <g id="line2d_1">
      <path d="M 504 346.085 
L 809.995 346.085 
" clip-path="url(#p35d5f4fd30)" style="fill: none; stroke: #ffffff; stroke-linecap: round"/>
     </g>
     <g id="text_1">
      <!-- aesthetic quality -->
      <g style="fill: #262626" transform="translate(774.63125 350.1275) scale(0.16 -0.16)">
       <defs>
        <path id="ArialMT-61" d="M 2588 409 
Q 2275 144 1986 34 
Q 1697 -75 1366 -75 
Q 819 -75 525 192 
Q 231 459 231 875 
Q 231 1119 342 1320 
Q 453 1522 633 1644 
Q 813 1766 1038 1828 
Q 1203 1872 1538 1913 
Q 2219 1994 2541 2106 
Q 2544 2222 2544 2253 
Q 2544 2597 2384 2738 
Q 2169 2928 1744 2928 
Q 1347 2928 1158 2789 
Q 969 2650 878 2297 
L 328 2372 
Q 403 2725 575 2942 
Q 747 3159 1072 3276 
Q 1397 3394 1825 3394 
Q 2250 3394 2515 3294 
Q 2781 3194 2906 3042 
Q 3031 2891 3081 2659 
Q 3109 2516 3109 2141 
L 3109 1391 
Q 3109 606 3145 398 
Q 3181 191 3288 0 
L 2700 0 
Q 2613 175 2588 409 
z
M 2541 1666 
Q 2234 1541 1622 1453 
Q 1275 1403 1131 1340 
Q 988 1278 909 1158 
Q 831 1038 831 891 
Q 831 666 1001 516 
Q 1172 366 1500 366 
Q 1825 366 2078 508 
Q 2331 650 2450 897 
Q 2541 1088 2541 1459 
L 2541 1666 
z
" transform="scale(0.015625)"/>
        <path id="ArialMT-65" d="M 2694 1069 
L 3275 997 
Q 3138 488 2766 206 
Q 2394 -75 1816 -75 
Q 1088 -75 661 373 
Q 234 822 234 1631 
Q 234 2469 665 2931 
Q 1097 3394 1784 3394 
Q 2450 3394 2872 2941 
Q 3294 2488 3294 1666 
Q 3294 1616 3291 1516 
L 816 1516 
Q 847 969 1125 678 
Q 1403 388 1819 388 
Q 2128 388 2347 550 
Q 2566 713 2694 1069 
z
M 847 1978 
L 2700 1978 
Q 2663 2397 2488 2606 
Q 2219 2931 1791 2931 
Q 1403 2931 1139 2672 
Q 875 2413 847 1978 
z
" transform="scale(0.015625)"/>
        <path id="ArialMT-73" d="M 197 991 
L 753 1078 
Q 800 744 1014 566 
Q 1228 388 1613 388 
Q 2000 388 2187 545 
Q 2375 703 2375 916 
Q 2375 1106 2209 1216 
Q 2094 1291 1634 1406 
Q 1016 1563 777 1677 
Q 538 1791 414 1992 
Q 291 2194 291 2438 
Q 291 2659 392 2848 
Q 494 3038 669 3163 
Q 800 3259 1026 3326 
Q 1253 3394 1513 3394 
Q 1903 3394 2198 3281 
Q 2494 3169 2634 2976 
Q 2775 2784 2828 2463 
L 2278 2388 
Q 2241 2644 2061 2787 
Q 1881 2931 1553 2931 
Q 1166 2931 1000 2803 
Q 834 2675 834 2503 
Q 834 2394 903 2306 
Q 972 2216 1119 2156 
Q 1203 2125 1616 2013 
Q 2213 1853 2448 1751 
Q 2684 1650 2818 1456 
Q 2953 1263 2953 975 
Q 2953 694 2789 445 
Q 2625 197 2315 61 
Q 2006 -75 1616 -75 
Q 969 -75 630 194 
Q 291 463 197 991 
z
" transform="scale(0.015625)"/>
        <path id="ArialMT-74" d="M 1650 503 
L 1731 6 
Q 1494 -44 1306 -44 
Q 1000 -44 831 53 
Q 663 150 594 308 
Q 525 466 525 972 
L 525 2881 
L 113 2881 
L 113 3319 
L 525 3319 
L 525 4141 
L 1084 4478 
L 1084 3319 
L 1650 3319 
L 1650 2881 
L 1084 2881 
L 1084 941 
Q 1084 700 1114 631 
Q 1144 563 1211 522 
Q 1278 481 1403 481 
Q 1497 481 1650 503 
z
" transform="scale(0.015625)"/>
        <path id="ArialMT-68" d="M 422 0 
L 422 4581 
L 984 4581 
L 984 2938 
Q 1378 3394 1978 3394 
Q 2347 3394 2619 3248 
Q 2891 3103 3008 2847 
Q 3125 2591 3125 2103 
L 3125 0 
L 2563 0 
L 2563 2103 
Q 2563 2525 2380 2717 
Q 2197 2909 1863 2909 
Q 1613 2909 1392 2779 
Q 1172 2650 1078 2428 
Q 984 2206 984 1816 
L 984 0 
L 422 0 
z
" transform="scale(0.015625)"/>
        <path id="ArialMT-69" d="M 425 3934 
L 425 4581 
L 988 4581 
L 988 3934 
L 425 3934 
z
M 425 0 
L 425 3319 
L 988 3319 
L 988 0 
L 425 0 
z
" transform="scale(0.015625)"/>
        <path id="ArialMT-63" d="M 2588 1216 
L 3141 1144 
Q 3050 572 2676 248 
Q 2303 -75 1759 -75 
Q 1078 -75 664 370 
Q 250 816 250 1647 
Q 250 2184 428 2587 
Q 606 2991 970 3192 
Q 1334 3394 1763 3394 
Q 2303 3394 2647 3120 
Q 2991 2847 3088 2344 
L 2541 2259 
Q 2463 2594 2264 2762 
Q 2066 2931 1784 2931 
Q 1359 2931 1093 2626 
Q 828 2322 828 1663 
Q 828 994 1084 691 
Q 1341 388 1753 388 
Q 2084 388 2306 591 
Q 2528 794 2588 1216 
z
" transform="scale(0.015625)"/>
        <path id="ArialMT-20" transform="scale(0.015625)"/>
        <path id="ArialMT-71" d="M 2538 -1272 
L 2538 353 
Q 2406 169 2170 47 
Q 1934 -75 1669 -75 
Q 1078 -75 651 397 
Q 225 869 225 1691 
Q 225 2191 398 2587 
Q 572 2984 901 3189 
Q 1231 3394 1625 3394 
Q 2241 3394 2594 2875 
L 2594 3319 
L 3100 3319 
L 3100 -1272 
L 2538 -1272 
z
M 803 1669 
Q 803 1028 1072 708 
Q 1341 388 1716 388 
Q 2075 388 2334 692 
Q 2594 997 2594 1619 
Q 2594 2281 2320 2615 
Q 2047 2950 1678 2950 
Q 1313 2950 1058 2639 
Q 803 2328 803 1669 
z
" transform="scale(0.015625)"/>
        <path id="ArialMT-75" d="M 2597 0 
L 2597 488 
Q 2209 -75 1544 -75 
Q 1250 -75 995 37 
Q 741 150 617 320 
Q 494 491 444 738 
Q 409 903 409 1263 
L 409 3319 
L 972 3319 
L 972 1478 
Q 972 1038 1006 884 
Q 1059 663 1231 536 
Q 1403 409 1656 409 
Q 1909 409 2131 539 
Q 2353 669 2445 892 
Q 2538 1116 2538 1541 
L 2538 3319 
L 3100 3319 
L 3100 0 
L 2597 0 
z
" transform="scale(0.015625)"/>
        <path id="ArialMT-6c" d="M 409 0 
L 409 4581 
L 972 4581 
L 972 0 
L 409 0 
z
" transform="scale(0.015625)"/>
        <path id="ArialMT-79" d="M 397 -1278 
L 334 -750 
Q 519 -800 656 -800 
Q 844 -800 956 -737 
Q 1069 -675 1141 -563 
Q 1194 -478 1313 -144 
Q 1328 -97 1363 -6 
L 103 3319 
L 709 3319 
L 1400 1397 
Q 1534 1031 1641 628 
Q 1738 1016 1872 1384 
L 2581 3319 
L 3144 3319 
L 1881 -56 
Q 1678 -603 1566 -809 
Q 1416 -1088 1222 -1217 
Q 1028 -1347 759 -1347 
Q 597 -1347 397 -1278 
z
" transform="scale(0.015625)"/>
       </defs>
       <use xlink:href="#ArialMT-61"/>
       <use xlink:href="#ArialMT-65" transform="translate(55.615234 0)"/>
       <use xlink:href="#ArialMT-73" transform="translate(111.230469 0)"/>
       <use xlink:href="#ArialMT-74" transform="translate(161.230469 0)"/>
       <use xlink:href="#ArialMT-68" transform="translate(189.013672 0)"/>
       <use xlink:href="#ArialMT-65" transform="translate(244.628906 0)"/>
       <use xlink:href="#ArialMT-74" transform="translate(300.244141 0)"/>
       <use xlink:href="#ArialMT-69" transform="translate(328.027344 0)"/>
       <use xlink:href="#ArialMT-63" transform="translate(350.244141 0)"/>
       <use xlink:href="#ArialMT-20" transform="translate(400.244141 0)"/>
       <use xlink:href="#ArialMT-71" transform="translate(428.027344 0)"/>
       <use xlink:href="#ArialMT-75" transform="translate(483.642578 0)"/>
       <use xlink:href="#ArialMT-61" transform="translate(539.257812 0)"/>
       <use xlink:href="#ArialMT-6c" transform="translate(594.873047 0)"/>
       <use xlink:href="#ArialMT-69" transform="translate(617.089844 0)"/>
       <use xlink:href="#ArialMT-74" transform="translate(639.306641 0)"/>
       <use xlink:href="#ArialMT-79" transform="translate(667.089844 0)"/>
      </g>
     </g>
    </g>
    <g id="xtick_2">
     <g id="line2d_2">
      <path d="M 504 346.085 
L 786.702518 228.985783 
" clip-path="url(#p35d5f4fd30)" style="fill: none; stroke: #ffffff; stroke-linecap: round"/>
     </g>
     <g id="text_2">
      <!-- appearance style -->
      <g style="fill: #262626" transform="translate(746.102867 224.609248) scale(0.16 -0.16)">
       <defs>
        <path id="ArialMT-70" d="M 422 -1272 
L 422 3319 
L 934 3319 
L 934 2888 
Q 1116 3141 1344 3267 
Q 1572 3394 1897 3394 
Q 2322 3394 2647 3175 
Q 2972 2956 3137 2557 
Q 3303 2159 3303 1684 
Q 3303 1175 3120 767 
Q 2938 359 2589 142 
Q 2241 -75 1856 -75 
Q 1575 -75 1351 44 
Q 1128 163 984 344 
L 984 -1272 
L 422 -1272 
z
M 931 1641 
Q 931 1000 1190 694 
Q 1450 388 1819 388 
Q 2194 388 2461 705 
Q 2728 1022 2728 1688 
Q 2728 2322 2467 2637 
Q 2206 2953 1844 2953 
Q 1484 2953 1207 2617 
Q 931 2281 931 1641 
z
" transform="scale(0.015625)"/>
        <path id="ArialMT-72" d="M 416 0 
L 416 3319 
L 922 3319 
L 922 2816 
Q 1116 3169 1280 3281 
Q 1444 3394 1641 3394 
Q 1925 3394 2219 3213 
L 2025 2691 
Q 1819 2813 1613 2813 
Q 1428 2813 1281 2702 
Q 1134 2591 1072 2394 
Q 978 2094 978 1738 
L 978 0 
L 416 0 
z
" transform="scale(0.015625)"/>
        <path id="ArialMT-6e" d="M 422 0 
L 422 3319 
L 928 3319 
L 928 2847 
Q 1294 3394 1984 3394 
Q 2284 3394 2536 3286 
Q 2788 3178 2913 3003 
Q 3038 2828 3088 2588 
Q 3119 2431 3119 2041 
L 3119 0 
L 2556 0 
L 2556 2019 
Q 2556 2363 2490 2533 
Q 2425 2703 2258 2804 
Q 2091 2906 1866 2906 
Q 1506 2906 1245 2678 
Q 984 2450 984 1813 
L 984 0 
L 422 0 
z
" transform="scale(0.015625)"/>
       </defs>
       <use xlink:href="#ArialMT-61"/>
       <use xlink:href="#ArialMT-70" transform="translate(55.615234 0)"/>
       <use xlink:href="#ArialMT-70" transform="translate(111.230469 0)"/>
       <use xlink:href="#ArialMT-65" transform="translate(166.845703 0)"/>
       <use xlink:href="#ArialMT-61" transform="translate(222.460938 0)"/>
       <use xlink:href="#ArialMT-72" transform="translate(278.076172 0)"/>
       <use xlink:href="#ArialMT-61" transform="translate(311.376953 0)"/>
       <use xlink:href="#ArialMT-6e" transform="translate(366.992188 0)"/>
       <use xlink:href="#ArialMT-63" transform="translate(422.607422 0)"/>
       <use xlink:href="#ArialMT-65" transform="translate(472.607422 0)"/>
       <use xlink:href="#ArialMT-20" transform="translate(528.222656 0)"/>
       <use xlink:href="#ArialMT-73" transform="translate(556.005859 0)"/>
       <use xlink:href="#ArialMT-74" transform="translate(606.005859 0)"/>
       <use xlink:href="#ArialMT-79" transform="translate(633.789062 0)"/>
       <use xlink:href="#ArialMT-6c" transform="translate(683.789062 0)"/>
       <use xlink:href="#ArialMT-65" transform="translate(706.005859 0)"/>
      </g>
     </g>
    </g>
    <g id="xtick_3">
     <g id="line2d_3">
      <path d="M 504 346.085 
L 720.37114 129.71386 
" clip-path="url(#p35d5f4fd30)" style="fill: none; stroke: #ffffff; stroke-linecap: round"/>
     </g>
     <g id="text_3">
      <!-- background consistency -->
      <g style="fill: #262626" transform="translate(650.104989 118.200011) scale(0.16 -0.16)">
       <defs>
        <path id="ArialMT-62" d="M 941 0 
L 419 0 
L 419 4581 
L 981 4581 
L 981 2947 
Q 1338 3394 1891 3394 
Q 2197 3394 2470 3270 
Q 2744 3147 2920 2923 
Q 3097 2700 3197 2384 
Q 3297 2069 3297 1709 
Q 3297 856 2875 390 
Q 2453 -75 1863 -75 
Q 1275 -75 941 416 
L 941 0 
z
M 934 1684 
Q 934 1088 1097 822 
Q 1363 388 1816 388 
Q 2184 388 2453 708 
Q 2722 1028 2722 1663 
Q 2722 2313 2464 2622 
Q 2206 2931 1841 2931 
Q 1472 2931 1203 2611 
Q 934 2291 934 1684 
z
" transform="scale(0.015625)"/>
        <path id="ArialMT-6b" d="M 425 0 
L 425 4581 
L 988 4581 
L 988 1969 
L 2319 3319 
L 3047 3319 
L 1778 2088 
L 3175 0 
L 2481 0 
L 1384 1697 
L 988 1316 
L 988 0 
L 425 0 
z
" transform="scale(0.015625)"/>
        <path id="ArialMT-67" d="M 319 -275 
L 866 -356 
Q 900 -609 1056 -725 
Q 1266 -881 1628 -881 
Q 2019 -881 2231 -725 
Q 2444 -569 2519 -288 
Q 2563 -116 2559 434 
Q 2191 0 1641 0 
Q 956 0 581 494 
Q 206 988 206 1678 
Q 206 2153 378 2554 
Q 550 2956 876 3175 
Q 1203 3394 1644 3394 
Q 2231 3394 2613 2919 
L 2613 3319 
L 3131 3319 
L 3131 450 
Q 3131 -325 2973 -648 
Q 2816 -972 2473 -1159 
Q 2131 -1347 1631 -1347 
Q 1038 -1347 672 -1080 
Q 306 -813 319 -275 
z
M 784 1719 
Q 784 1066 1043 766 
Q 1303 466 1694 466 
Q 2081 466 2343 764 
Q 2606 1063 2606 1700 
Q 2606 2309 2336 2618 
Q 2066 2928 1684 2928 
Q 1309 2928 1046 2623 
Q 784 2319 784 1719 
z
" transform="scale(0.015625)"/>
        <path id="ArialMT-6f" d="M 213 1659 
Q 213 2581 725 3025 
Q 1153 3394 1769 3394 
Q 2453 3394 2887 2945 
Q 3322 2497 3322 1706 
Q 3322 1066 3130 698 
Q 2938 331 2570 128 
Q 2203 -75 1769 -75 
Q 1072 -75 642 372 
Q 213 819 213 1659 
z
M 791 1659 
Q 791 1022 1069 705 
Q 1347 388 1769 388 
Q 2188 388 2466 706 
Q 2744 1025 2744 1678 
Q 2744 2294 2464 2611 
Q 2184 2928 1769 2928 
Q 1347 2928 1069 2612 
Q 791 2297 791 1659 
z
" transform="scale(0.015625)"/>
        <path id="ArialMT-64" d="M 2575 0 
L 2575 419 
Q 2259 -75 1647 -75 
Q 1250 -75 917 144 
Q 584 363 401 755 
Q 219 1147 219 1656 
Q 219 2153 384 2558 
Q 550 2963 881 3178 
Q 1213 3394 1622 3394 
Q 1922 3394 2156 3267 
Q 2391 3141 2538 2938 
L 2538 4581 
L 3097 4581 
L 3097 0 
L 2575 0 
z
M 797 1656 
Q 797 1019 1065 703 
Q 1334 388 1700 388 
Q 2069 388 2326 689 
Q 2584 991 2584 1609 
Q 2584 2291 2321 2609 
Q 2059 2928 1675 2928 
Q 1300 2928 1048 2622 
Q 797 2316 797 1656 
z
" transform="scale(0.015625)"/>
       </defs>
       <use xlink:href="#ArialMT-62"/>
       <use xlink:href="#ArialMT-61" transform="translate(55.615234 0)"/>
       <use xlink:href="#ArialMT-63" transform="translate(111.230469 0)"/>
       <use xlink:href="#ArialMT-6b" transform="translate(161.230469 0)"/>
       <use xlink:href="#ArialMT-67" transform="translate(211.230469 0)"/>
       <use xlink:href="#ArialMT-72" transform="translate(266.845703 0)"/>
       <use xlink:href="#ArialMT-6f" transform="translate(300.146484 0)"/>
       <use xlink:href="#ArialMT-75" transform="translate(355.761719 0)"/>
       <use xlink:href="#ArialMT-6e" transform="translate(411.376953 0)"/>
       <use xlink:href="#ArialMT-64" transform="translate(466.992188 0)"/>
       <use xlink:href="#ArialMT-20" transform="translate(522.607422 0)"/>
       <use xlink:href="#ArialMT-63" transform="translate(550.390625 0)"/>
       <use xlink:href="#ArialMT-6f" transform="translate(600.390625 0)"/>
       <use xlink:href="#ArialMT-6e" transform="translate(656.005859 0)"/>
       <use xlink:href="#ArialMT-73" transform="translate(711.621094 0)"/>
       <use xlink:href="#ArialMT-69" transform="translate(761.621094 0)"/>
       <use xlink:href="#ArialMT-73" transform="translate(783.837891 0)"/>
       <use xlink:href="#ArialMT-74" transform="translate(833.837891 0)"/>
       <use xlink:href="#ArialMT-65" transform="translate(861.621094 0)"/>
       <use xlink:href="#ArialMT-6e" transform="translate(917.236328 0)"/>
       <use xlink:href="#ArialMT-63" transform="translate(972.851562 0)"/>
       <use xlink:href="#ArialMT-79" transform="translate(1022.851562 0)"/>
      </g>
     </g>
    </g>
    <g id="xtick_4">
     <g id="line2d_4">
      <path d="M 504 346.085 
L 621.099217 63.382482 
" clip-path="url(#p35d5f4fd30)" style="fill: none; stroke: #ffffff; stroke-linecap: round"/>
     </g>
     <g id="text_4">
      <!-- color -->
      <g style="fill: #262626" transform="translate(612.179502 47.193383) scale(0.16 -0.16)">
       <use xlink:href="#ArialMT-63"/>
       <use xlink:href="#ArialMT-6f" transform="translate(50 0)"/>
       <use xlink:href="#ArialMT-6c" transform="translate(105.615234 0)"/>
       <use xlink:href="#ArialMT-6f" transform="translate(127.832031 0)"/>
       <use xlink:href="#ArialMT-72" transform="translate(183.447266 0)"/>
      </g>
     </g>
    </g>
    <g id="xtick_5">
     <g id="line2d_5">
      <path d="M 504 346.085 
L 504 40.09 
" clip-path="url(#p35d5f4fd30)" style="fill: none; stroke: #ffffff; stroke-linecap: round"/>
     </g>
     <g id="text_5">
      <!-- dynamic degree -->
      <g style="fill: #262626" transform="translate(447.0825 22.1325) scale(0.16 -0.16)">
       <defs>
        <path id="ArialMT-6d" d="M 422 0 
L 422 3319 
L 925 3319 
L 925 2853 
Q 1081 3097 1340 3245 
Q 1600 3394 1931 3394 
Q 2300 3394 2536 3241 
Q 2772 3088 2869 2813 
Q 3263 3394 3894 3394 
Q 4388 3394 4653 3120 
Q 4919 2847 4919 2278 
L 4919 0 
L 4359 0 
L 4359 2091 
Q 4359 2428 4304 2576 
Q 4250 2725 4106 2815 
Q 3963 2906 3769 2906 
Q 3419 2906 3187 2673 
Q 2956 2441 2956 1928 
L 2956 0 
L 2394 0 
L 2394 2156 
Q 2394 2531 2256 2718 
Q 2119 2906 1806 2906 
Q 1569 2906 1367 2781 
Q 1166 2656 1075 2415 
Q 984 2175 984 1722 
L 984 0 
L 422 0 
z
" transform="scale(0.015625)"/>
       </defs>
       <use xlink:href="#ArialMT-64"/>
       <use xlink:href="#ArialMT-79" transform="translate(55.615234 0)"/>
       <use xlink:href="#ArialMT-6e" transform="translate(105.615234 0)"/>
       <use xlink:href="#ArialMT-61" transform="translate(161.230469 0)"/>
       <use xlink:href="#ArialMT-6d" transform="translate(216.845703 0)"/>
       <use xlink:href="#ArialMT-69" transform="translate(300.146484 0)"/>
       <use xlink:href="#ArialMT-63" transform="translate(322.363281 0)"/>
       <use xlink:href="#ArialMT-20" transform="translate(372.363281 0)"/>
       <use xlink:href="#ArialMT-64" transform="translate(400.146484 0)"/>
       <use xlink:href="#ArialMT-65" transform="translate(455.761719 0)"/>
       <use xlink:href="#ArialMT-67" transform="translate(511.376953 0)"/>
       <use xlink:href="#ArialMT-72" transform="translate(566.992188 0)"/>
       <use xlink:href="#ArialMT-65" transform="translate(600.292969 0)"/>
       <use xlink:href="#ArialMT-65" transform="translate(655.908203 0)"/>
      </g>
     </g>
    </g>
    <g id="xtick_6">
     <g id="line2d_6">
      <path d="M 504 346.085 
L 386.900783 63.382482 
" clip-path="url(#p35d5f4fd30)" style="fill: none; stroke: #ffffff; stroke-linecap: round"/>
     </g>
     <g id="text_6">
      <!-- human action -->
      <g style="fill: #262626" transform="translate(330.454248 47.193383) scale(0.16 -0.16)">
       <use xlink:href="#ArialMT-68"/>
       <use xlink:href="#ArialMT-75" transform="translate(55.615234 0)"/>
       <use xlink:href="#ArialMT-6d" transform="translate(111.230469 0)"/>
       <use xlink:href="#ArialMT-61" transform="translate(194.53125 0)"/>
       <use xlink:href="#ArialMT-6e" transform="translate(250.146484 0)"/>
       <use xlink:href="#ArialMT-20" transform="translate(305.761719 0)"/>
       <use xlink:href="#ArialMT-61" transform="translate(333.544922 0)"/>
       <use xlink:href="#ArialMT-63" transform="translate(389.160156 0)"/>
       <use xlink:href="#ArialMT-74" transform="translate(439.160156 0)"/>
       <use xlink:href="#ArialMT-69" transform="translate(466.943359 0)"/>
       <use xlink:href="#ArialMT-6f" transform="translate(489.160156 0)"/>
       <use xlink:href="#ArialMT-6e" transform="translate(544.775391 0)"/>
      </g>
     </g>
    </g>
    <g id="xtick_7">
     <g id="line2d_7">
      <path d="M 504 346.085 
L 287.62886 129.71386 
" clip-path="url(#p35d5f4fd30)" style="fill: none; stroke: #ffffff; stroke-linecap: round"/>
     </g>
     <g id="text_7">
      <!-- imaging quality -->
      <g style="fill: #262626" transform="translate(218.712511 118.200011) scale(0.16 -0.16)">
       <use xlink:href="#ArialMT-69"/>
       <use xlink:href="#ArialMT-6d" transform="translate(22.216797 0)"/>
       <use xlink:href="#ArialMT-61" transform="translate(105.517578 0)"/>
       <use xlink:href="#ArialMT-67" transform="translate(161.132812 0)"/>
       <use xlink:href="#ArialMT-69" transform="translate(216.748047 0)"/>
       <use xlink:href="#ArialMT-6e" transform="translate(238.964844 0)"/>
       <use xlink:href="#ArialMT-67" transform="translate(294.580078 0)"/>
       <use xlink:href="#ArialMT-20" transform="translate(350.195312 0)"/>
       <use xlink:href="#ArialMT-71" transform="translate(377.978516 0)"/>
       <use xlink:href="#ArialMT-75" transform="translate(433.59375 0)"/>
       <use xlink:href="#ArialMT-61" transform="translate(489.208984 0)"/>
       <use xlink:href="#ArialMT-6c" transform="translate(544.824219 0)"/>
       <use xlink:href="#ArialMT-69" transform="translate(567.041016 0)"/>
       <use xlink:href="#ArialMT-74" transform="translate(589.257812 0)"/>
       <use xlink:href="#ArialMT-79" transform="translate(617.041016 0)"/>
      </g>
     </g>
    </g>
    <g id="xtick_8">
     <g id="line2d_8">
      <path d="M 504 346.085 
L 221.297482 228.985783 
" clip-path="url(#p35d5f4fd30)" style="fill: none; stroke: #ffffff; stroke-linecap: round"/>
     </g>
     <g id="text_8">
      <!-- motion smoothness -->
      <g style="fill: #262626" transform="translate(131.609633 224.702998) scale(0.16 -0.16)">
       <use xlink:href="#ArialMT-6d"/>
       <use xlink:href="#ArialMT-6f" transform="translate(83.300781 0)"/>
       <use xlink:href="#ArialMT-74" transform="translate(138.916016 0)"/>
       <use xlink:href="#ArialMT-69" transform="translate(166.699219 0)"/>
       <use xlink:href="#ArialMT-6f" transform="translate(188.916016 0)"/>
       <use xlink:href="#ArialMT-6e" transform="translate(244.53125 0)"/>
       <use xlink:href="#ArialMT-20" transform="translate(300.146484 0)"/>
       <use xlink:href="#ArialMT-73" transform="translate(327.929688 0)"/>
       <use xlink:href="#ArialMT-6d" transform="translate(377.929688 0)"/>
       <use xlink:href="#ArialMT-6f" transform="translate(461.230469 0)"/>
       <use xlink:href="#ArialMT-6f" transform="translate(516.845703 0)"/>
       <use xlink:href="#ArialMT-74" transform="translate(572.460938 0)"/>
       <use xlink:href="#ArialMT-68" transform="translate(600.244141 0)"/>
       <use xlink:href="#ArialMT-6e" transform="translate(655.859375 0)"/>
       <use xlink:href="#ArialMT-65" transform="translate(711.474609 0)"/>
       <use xlink:href="#ArialMT-73" transform="translate(767.089844 0)"/>
       <use xlink:href="#ArialMT-73" transform="translate(817.089844 0)"/>
      </g>
     </g>
    </g>
    <g id="xtick_9">
     <g id="line2d_9">
      <path d="M 504 346.085 
L 198.005 346.085 
" clip-path="url(#p35d5f4fd30)" style="fill: none; stroke: #ffffff; stroke-linecap: round"/>
     </g>
     <g id="text_9">
      <!-- multiple objects -->
      <g style="fill: #262626" transform="translate(120.87125 350.1275) scale(0.16 -0.16)">
       <defs>
        <path id="ArialMT-6a" d="M 419 3928 
L 419 4581 
L 981 4581 
L 981 3928 
L 419 3928 
z
M -294 -1288 
L -188 -809 
Q -19 -853 78 -853 
Q 250 -853 334 -739 
Q 419 -625 419 -169 
L 419 3319 
L 981 3319 
L 981 -181 
Q 981 -794 822 -1034 
Q 619 -1347 147 -1347 
Q -81 -1347 -294 -1288 
z
" transform="scale(0.015625)"/>
       </defs>
       <use xlink:href="#ArialMT-6d"/>
       <use xlink:href="#ArialMT-75" transform="translate(83.300781 0)"/>
       <use xlink:href="#ArialMT-6c" transform="translate(138.916016 0)"/>
       <use xlink:href="#ArialMT-74" transform="translate(161.132812 0)"/>
       <use xlink:href="#ArialMT-69" transform="translate(188.916016 0)"/>
       <use xlink:href="#ArialMT-70" transform="translate(211.132812 0)"/>
       <use xlink:href="#ArialMT-6c" transform="translate(266.748047 0)"/>
       <use xlink:href="#ArialMT-65" transform="translate(288.964844 0)"/>
       <use xlink:href="#ArialMT-20" transform="translate(344.580078 0)"/>
       <use xlink:href="#ArialMT-6f" transform="translate(372.363281 0)"/>
       <use xlink:href="#ArialMT-62" transform="translate(427.978516 0)"/>
       <use xlink:href="#ArialMT-6a" transform="translate(483.59375 0)"/>
       <use xlink:href="#ArialMT-65" transform="translate(505.810547 0)"/>
       <use xlink:href="#ArialMT-63" transform="translate(561.425781 0)"/>
       <use xlink:href="#ArialMT-74" transform="translate(611.425781 0)"/>
       <use xlink:href="#ArialMT-73" transform="translate(639.208984 0)"/>
      </g>
     </g>
    </g>
    <g id="xtick_10">
     <g id="line2d_10">
      <path d="M 504 346.085 
L 221.297482 463.184217 
" clip-path="url(#p35d5f4fd30)" style="fill: none; stroke: #ffffff; stroke-linecap: round"/>
     </g>
     <g id="text_10">
      <!-- object class -->
      <g style="fill: #262626" transform="translate(159.177133 475.645752) scale(0.16 -0.16)">
       <use xlink:href="#ArialMT-6f"/>
       <use xlink:href="#ArialMT-62" transform="translate(55.615234 0)"/>
       <use xlink:href="#ArialMT-6a" transform="translate(111.230469 0)"/>
       <use xlink:href="#ArialMT-65" transform="translate(133.447266 0)"/>
       <use xlink:href="#ArialMT-63" transform="translate(189.0625 0)"/>
       <use xlink:href="#ArialMT-74" transform="translate(239.0625 0)"/>
       <use xlink:href="#ArialMT-20" transform="translate(266.845703 0)"/>
       <use xlink:href="#ArialMT-63" transform="translate(294.628906 0)"/>
       <use xlink:href="#ArialMT-6c" transform="translate(344.628906 0)"/>
       <use xlink:href="#ArialMT-61" transform="translate(366.845703 0)"/>
       <use xlink:href="#ArialMT-73" transform="translate(422.460938 0)"/>
       <use xlink:href="#ArialMT-73" transform="translate(472.460938 0)"/>
      </g>
     </g>
    </g>
    <g id="xtick_11">
     <g id="line2d_11">
      <path d="M 504 346.085 
L 287.62886 562.45614 
" clip-path="url(#p35d5f4fd30)" style="fill: none; stroke: #ffffff; stroke-linecap: round"/>
     </g>
     <g id="text_11">
      <!-- overall consistency -->
      <g style="fill: #262626" transform="translate(204.490011 582.054989) scale(0.16 -0.16)">
       <defs>
        <path id="ArialMT-76" d="M 1344 0 
L 81 3319 
L 675 3319 
L 1388 1331 
Q 1503 1009 1600 663 
Q 1675 925 1809 1294 
L 2547 3319 
L 3125 3319 
L 1869 0 
L 1344 0 
z
" transform="scale(0.015625)"/>
       </defs>
       <use xlink:href="#ArialMT-6f"/>
       <use xlink:href="#ArialMT-76" transform="translate(55.615234 0)"/>
       <use xlink:href="#ArialMT-65" transform="translate(105.615234 0)"/>
       <use xlink:href="#ArialMT-72" transform="translate(161.230469 0)"/>
       <use xlink:href="#ArialMT-61" transform="translate(194.53125 0)"/>
       <use xlink:href="#ArialMT-6c" transform="translate(250.146484 0)"/>
       <use xlink:href="#ArialMT-6c" transform="translate(272.363281 0)"/>
       <use xlink:href="#ArialMT-20" transform="translate(294.580078 0)"/>
       <use xlink:href="#ArialMT-63" transform="translate(322.363281 0)"/>
       <use xlink:href="#ArialMT-6f" transform="translate(372.363281 0)"/>
       <use xlink:href="#ArialMT-6e" transform="translate(427.978516 0)"/>
       <use xlink:href="#ArialMT-73" transform="translate(483.59375 0)"/>
       <use xlink:href="#ArialMT-69" transform="translate(533.59375 0)"/>
       <use xlink:href="#ArialMT-73" transform="translate(555.810547 0)"/>
       <use xlink:href="#ArialMT-74" transform="translate(605.810547 0)"/>
       <use xlink:href="#ArialMT-65" transform="translate(633.59375 0)"/>
       <use xlink:href="#ArialMT-6e" transform="translate(689.208984 0)"/>
       <use xlink:href="#ArialMT-63" transform="translate(744.824219 0)"/>
       <use xlink:href="#ArialMT-79" transform="translate(794.824219 0)"/>
      </g>
     </g>
    </g>
    <g id="xtick_12">
     <g id="line2d_12">
      <path d="M 504 346.085 
L 386.900783 628.787518 
" clip-path="url(#p35d5f4fd30)" style="fill: none; stroke: #ffffff; stroke-linecap: round"/>
     </g>
     <g id="text_12">
      <!-- scene -->
      <g style="fill: #262626" transform="translate(357.135498 653.249117) scale(0.16 -0.16)">
       <use xlink:href="#ArialMT-73"/>
       <use xlink:href="#ArialMT-63" transform="translate(50 0)"/>
       <use xlink:href="#ArialMT-65" transform="translate(100 0)"/>
       <use xlink:href="#ArialMT-6e" transform="translate(155.615234 0)"/>
       <use xlink:href="#ArialMT-65" transform="translate(211.230469 0)"/>
      </g>
     </g>
    </g>
    <g id="xtick_13">
     <g id="line2d_13">
      <path d="M 504 346.085 
L 504 652.08 
" clip-path="url(#p35d5f4fd30)" style="fill: none; stroke: #ffffff; stroke-linecap: round"/>
     </g>
     <g id="text_13">
      <!-- spatial relationship -->
      <g style="fill: #262626" transform="translate(437.7425 678.21625) scale(0.16 -0.16)">
       <use xlink:href="#ArialMT-73"/>
       <use xlink:href="#ArialMT-70" transform="translate(50 0)"/>
       <use xlink:href="#ArialMT-61" transform="translate(105.615234 0)"/>
       <use xlink:href="#ArialMT-74" transform="translate(161.230469 0)"/>
       <use xlink:href="#ArialMT-69" transform="translate(189.013672 0)"/>
       <use xlink:href="#ArialMT-61" transform="translate(211.230469 0)"/>
       <use xlink:href="#ArialMT-6c" transform="translate(266.845703 0)"/>
       <use xlink:href="#ArialMT-20" transform="translate(289.0625 0)"/>
       <use xlink:href="#ArialMT-72" transform="translate(316.845703 0)"/>
       <use xlink:href="#ArialMT-65" transform="translate(350.146484 0)"/>
       <use xlink:href="#ArialMT-6c" transform="translate(405.761719 0)"/>
       <use xlink:href="#ArialMT-61" transform="translate(427.978516 0)"/>
       <use xlink:href="#ArialMT-74" transform="translate(483.59375 0)"/>
       <use xlink:href="#ArialMT-69" transform="translate(511.376953 0)"/>
       <use xlink:href="#ArialMT-6f" transform="translate(533.59375 0)"/>
       <use xlink:href="#ArialMT-6e" transform="translate(589.208984 0)"/>
       <use xlink:href="#ArialMT-73" transform="translate(644.824219 0)"/>
       <use xlink:href="#ArialMT-68" transform="translate(694.824219 0)"/>
       <use xlink:href="#ArialMT-69" transform="translate(750.439453 0)"/>
       <use xlink:href="#ArialMT-70" transform="translate(772.65625 0)"/>
      </g>
     </g>
    </g>
    <g id="xtick_14">
     <g id="line2d_14">
      <path d="M 504 346.085 
L 621.099217 628.787518 
" clip-path="url(#p35d5f4fd30)" style="fill: none; stroke: #ffffff; stroke-linecap: round"/>
     </g>
     <g id="text_14">
      <!-- subject consistency -->
      <g style="fill: #262626" transform="translate(560.154502 653.155367) scale(0.16 -0.16)">
       <use xlink:href="#ArialMT-73"/>
       <use xlink:href="#ArialMT-75" transform="translate(50 0)"/>
       <use xlink:href="#ArialMT-62" transform="translate(105.615234 0)"/>
       <use xlink:href="#ArialMT-6a" transform="translate(161.230469 0)"/>
       <use xlink:href="#ArialMT-65" transform="translate(183.447266 0)"/>
       <use xlink:href="#ArialMT-63" transform="translate(239.0625 0)"/>
       <use xlink:href="#ArialMT-74" transform="translate(289.0625 0)"/>
       <use xlink:href="#ArialMT-20" transform="translate(316.845703 0)"/>
       <use xlink:href="#ArialMT-63" transform="translate(344.628906 0)"/>
       <use xlink:href="#ArialMT-6f" transform="translate(394.628906 0)"/>
       <use xlink:href="#ArialMT-6e" transform="translate(450.244141 0)"/>
       <use xlink:href="#ArialMT-73" transform="translate(505.859375 0)"/>
       <use xlink:href="#ArialMT-69" transform="translate(555.859375 0)"/>
       <use xlink:href="#ArialMT-73" transform="translate(578.076172 0)"/>
       <use xlink:href="#ArialMT-74" transform="translate(628.076172 0)"/>
       <use xlink:href="#ArialMT-65" transform="translate(655.859375 0)"/>
       <use xlink:href="#ArialMT-6e" transform="translate(711.474609 0)"/>
       <use xlink:href="#ArialMT-63" transform="translate(767.089844 0)"/>
       <use xlink:href="#ArialMT-79" transform="translate(817.089844 0)"/>
      </g>
     </g>
    </g>
    <g id="xtick_15">
     <g id="line2d_15">
      <path d="M 504 346.085 
L 720.37114 562.45614 
" clip-path="url(#p35d5f4fd30)" style="fill: none; stroke: #ffffff; stroke-linecap: round"/>
     </g>
     <g id="text_15">
      <!-- temporal flickering -->
      <g style="fill: #262626" transform="translate(671.017489 582.152489) scale(0.16 -0.16)">
       <defs>
        <path id="ArialMT-66" d="M 556 0 
L 556 2881 
L 59 2881 
L 59 3319 
L 556 3319 
L 556 3672 
Q 556 4006 616 4169 
Q 697 4388 901 4523 
Q 1106 4659 1475 4659 
Q 1713 4659 2000 4603 
L 1916 4113 
Q 1741 4144 1584 4144 
Q 1328 4144 1222 4034 
Q 1116 3925 1116 3625 
L 1116 3319 
L 1763 3319 
L 1763 2881 
L 1116 2881 
L 1116 0 
L 556 0 
z
" transform="scale(0.015625)"/>
       </defs>
       <use xlink:href="#ArialMT-74"/>
       <use xlink:href="#ArialMT-65" transform="translate(27.783203 0)"/>
       <use xlink:href="#ArialMT-6d" transform="translate(83.398438 0)"/>
       <use xlink:href="#ArialMT-70" transform="translate(166.699219 0)"/>
       <use xlink:href="#ArialMT-6f" transform="translate(222.314453 0)"/>
       <use xlink:href="#ArialMT-72" transform="translate(277.929688 0)"/>
       <use xlink:href="#ArialMT-61" transform="translate(311.230469 0)"/>
       <use xlink:href="#ArialMT-6c" transform="translate(366.845703 0)"/>
       <use xlink:href="#ArialMT-20" transform="translate(389.0625 0)"/>
       <use xlink:href="#ArialMT-66" transform="translate(416.845703 0)"/>
       <use xlink:href="#ArialMT-6c" transform="translate(444.628906 0)"/>
       <use xlink:href="#ArialMT-69" transform="translate(466.845703 0)"/>
       <use xlink:href="#ArialMT-63" transform="translate(489.0625 0)"/>
       <use xlink:href="#ArialMT-6b" transform="translate(539.0625 0)"/>
       <use xlink:href="#ArialMT-65" transform="translate(589.0625 0)"/>
       <use xlink:href="#ArialMT-72" transform="translate(644.677734 0)"/>
       <use xlink:href="#ArialMT-69" transform="translate(677.978516 0)"/>
       <use xlink:href="#ArialMT-6e" transform="translate(700.195312 0)"/>
       <use xlink:href="#ArialMT-67" transform="translate(755.810547 0)"/>
      </g>
     </g>
    </g>
    <g id="xtick_16">
     <g id="line2d_16">
      <path d="M 504 346.085 
L 786.702518 463.184217 
" clip-path="url(#p35d5f4fd30)" style="fill: none; stroke: #ffffff; stroke-linecap: round"/>
     </g>
     <g id="text_16">
      <!-- temporal style -->
      <g style="fill: #262626" transform="translate(757.234117 475.645752) scale(0.16 -0.16)">
       <use xlink:href="#ArialMT-74"/>
       <use xlink:href="#ArialMT-65" transform="translate(27.783203 0)"/>
       <use xlink:href="#ArialMT-6d" transform="translate(83.398438 0)"/>
       <use xlink:href="#ArialMT-70" transform="translate(166.699219 0)"/>
       <use xlink:href="#ArialMT-6f" transform="translate(222.314453 0)"/>
       <use xlink:href="#ArialMT-72" transform="translate(277.929688 0)"/>
       <use xlink:href="#ArialMT-61" transform="translate(311.230469 0)"/>
       <use xlink:href="#ArialMT-6c" transform="translate(366.845703 0)"/>
       <use xlink:href="#ArialMT-20" transform="translate(389.0625 0)"/>
       <use xlink:href="#ArialMT-73" transform="translate(416.845703 0)"/>
       <use xlink:href="#ArialMT-74" transform="translate(466.845703 0)"/>
       <use xlink:href="#ArialMT-79" transform="translate(494.628906 0)"/>
       <use xlink:href="#ArialMT-6c" transform="translate(544.628906 0)"/>
       <use xlink:href="#ArialMT-65" transform="translate(566.845703 0)"/>
      </g>
     </g>
    </g>
   </g>
   <g id="matplotlib.axis_2">
    <g id="ytick_1">
     <g id="line2d_17">
      <path d="M 565.199 346.085 
C 565.199 338.048421 563.615969 330.089988 560.540504 322.665157 
C 557.465038 315.240326 552.956947 308.493492 547.274228 302.810772 
C 541.591508 297.128053 534.844674 292.619962 527.419843 289.544496 
C 519.995012 286.469031 512.036579 284.886 504 284.886 
C 495.963421 284.886 488.004988 286.469031 480.580157 289.544496 
C 473.155326 292.619962 466.408492 297.128053 460.725772 302.810772 
C 455.043053 308.493492 450.534962 315.240326 447.459496 322.665157 
C 444.384031 330.089988 442.801 338.048421 442.801 346.085 
C 442.801 354.121579 444.384031 362.080012 447.459496 369.504843 
C 450.534962 376.929674 455.043053 383.676508 460.725772 389.359228 
C 466.408492 395.041947 473.155326 399.550038 480.580157 402.625504 
C 488.004988 405.700969 495.963421 407.284 504 407.284 
C 512.036579 407.284 519.995012 405.700969 527.419843 402.625504 
C 534.844674 399.550038 541.591508 395.041947 547.274228 389.359228 
C 552.956947 383.676508 557.465038 376.929674 560.540504 369.504843 
C 563.615969 362.080012 565.199 354.121579 565.199 346.085 
" clip-path="url(#p35d5f4fd30)" style="fill: none; stroke: #ffffff; stroke-linecap: round"/>
     </g>
     <g id="text_17">
      <!-- 0.2 -->
      <g style="fill: #262626" transform="translate(560.540504 320.677657) scale(0.1 -0.1)">
       <defs>
        <path id="ArialMT-30" d="M 266 2259 
Q 266 3072 433 3567 
Q 600 4063 929 4331 
Q 1259 4600 1759 4600 
Q 2128 4600 2406 4451 
Q 2684 4303 2865 4023 
Q 3047 3744 3150 3342 
Q 3253 2941 3253 2259 
Q 3253 1453 3087 958 
Q 2922 463 2592 192 
Q 2263 -78 1759 -78 
Q 1097 -78 719 397 
Q 266 969 266 2259 
z
M 844 2259 
Q 844 1131 1108 757 
Q 1372 384 1759 384 
Q 2147 384 2411 759 
Q 2675 1134 2675 2259 
Q 2675 3391 2411 3762 
Q 2147 4134 1753 4134 
Q 1366 4134 1134 3806 
Q 844 3388 844 2259 
z
" transform="scale(0.015625)"/>
        <path id="ArialMT-2e" d="M 581 0 
L 581 641 
L 1222 641 
L 1222 0 
L 581 0 
z
" transform="scale(0.015625)"/>
        <path id="ArialMT-32" d="M 3222 541 
L 3222 0 
L 194 0 
Q 188 203 259 391 
Q 375 700 629 1000 
Q 884 1300 1366 1694 
Q 2113 2306 2375 2664 
Q 2638 3022 2638 3341 
Q 2638 3675 2398 3904 
Q 2159 4134 1775 4134 
Q 1369 4134 1125 3890 
Q 881 3647 878 3216 
L 300 3275 
Q 359 3922 746 4261 
Q 1134 4600 1788 4600 
Q 2447 4600 2831 4234 
Q 3216 3869 3216 3328 
Q 3216 3053 3103 2787 
Q 2991 2522 2730 2228 
Q 2469 1934 1863 1422 
Q 1356 997 1212 845 
Q 1069 694 975 541 
L 3222 541 
z
" transform="scale(0.015625)"/>
       </defs>
       <use xlink:href="#ArialMT-30"/>
       <use xlink:href="#ArialMT-2e" transform="translate(55.615234 0)"/>
       <use xlink:href="#ArialMT-32" transform="translate(83.398438 0)"/>
      </g>
     </g>
    </g>
    <g id="ytick_2">
     <g id="line2d_18">
      <path d="M 626.398 346.085 
C 626.398 330.011842 623.231938 314.094975 617.081007 299.245313 
C 610.930076 284.395651 601.913895 270.901983 590.548456 259.536544 
C 579.183017 248.171105 565.689349 239.154924 550.839687 233.003993 
C 535.990025 226.853062 520.073158 223.687 504 223.687 
C 487.926842 223.687 472.009975 226.853062 457.160313 233.003993 
C 442.310651 239.154924 428.816983 248.171105 417.451544 259.536544 
C 406.086105 270.901983 397.069924 284.395651 390.918993 299.245313 
C 384.768062 314.094975 381.602 330.011842 381.602 346.085 
C 381.602 362.158158 384.768062 378.075025 390.918993 392.924687 
C 397.069924 407.774349 406.086105 421.268017 417.451544 432.633456 
C 428.816983 443.998895 442.310651 453.015076 457.160313 459.166007 
C 472.009975 465.316938 487.926842 468.483 504 468.483 
C 520.073158 468.483 535.990025 465.316938 550.839687 459.166007 
C 565.689349 453.015076 579.183017 443.998895 590.548456 432.633456 
C 601.913895 421.268017 610.930076 407.774349 617.081007 392.924687 
C 623.231938 378.075025 626.398 362.158158 626.398 346.085 
" clip-path="url(#p35d5f4fd30)" style="fill: none; stroke: #ffffff; stroke-linecap: round"/>
     </g>
     <g id="text_18">
      <!-- 0.4 -->
      <g style="fill: #262626" transform="translate(617.081007 297.257813) scale(0.1 -0.1)">
       <defs>
        <path id="ArialMT-34" d="M 2069 0 
L 2069 1097 
L 81 1097 
L 81 1613 
L 2172 4581 
L 2631 4581 
L 2631 1613 
L 3250 1613 
L 3250 1097 
L 2631 1097 
L 2631 0 
L 2069 0 
z
M 2069 1613 
L 2069 3678 
L 634 1613 
L 2069 1613 
z
" transform="scale(0.015625)"/>
       </defs>
       <use xlink:href="#ArialMT-30"/>
       <use xlink:href="#ArialMT-2e" transform="translate(55.615234 0)"/>
       <use xlink:href="#ArialMT-34" transform="translate(83.398438 0)"/>
      </g>
     </g>
    </g>
    <g id="ytick_3">
     <g id="line2d_19">
      <path d="M 687.597 346.085 
C 687.597 321.975263 682.847907 298.099963 673.621511 275.82547 
C 664.395114 253.550977 650.870842 233.310475 633.822684 216.262316 
C 616.774525 199.214158 596.534023 185.689886 574.25953 176.463489 
C 551.985037 167.237093 528.109737 162.488 504 162.488 
C 479.890263 162.488 456.014963 167.237093 433.74047 176.463489 
C 411.465977 185.689886 391.225475 199.214158 374.177316 216.262316 
C 357.129158 233.310475 343.604886 253.550977 334.378489 275.82547 
C 325.152093 298.099963 320.403 321.975263 320.403 346.085 
C 320.403 370.194737 325.152093 394.070037 334.378489 416.34453 
C 343.604886 438.619023 357.129158 458.859525 374.177316 475.907684 
C 391.225475 492.955842 411.465977 506.480114 433.74047 515.706511 
C 456.014963 524.932907 479.890263 529.682 504 529.682 
C 528.109737 529.682 551.985037 524.932907 574.25953 515.706511 
C 596.534023 506.480114 616.774525 492.955842 633.822684 475.907684 
C 650.870842 458.859525 664.395114 438.619023 673.621511 416.34453 
C 682.847907 394.070037 687.597 370.194737 687.597 346.085 
" clip-path="url(#p35d5f4fd30)" style="fill: none; stroke: #ffffff; stroke-linecap: round"/>
     </g>
     <g id="text_19">
      <!-- 0.6 -->
      <g style="fill: #262626" transform="translate(673.621511 273.83797) scale(0.1 -0.1)">
       <defs>
        <path id="ArialMT-36" d="M 3184 3459 
L 2625 3416 
Q 2550 3747 2413 3897 
Q 2184 4138 1850 4138 
Q 1581 4138 1378 3988 
Q 1113 3794 959 3422 
Q 806 3050 800 2363 
Q 1003 2672 1297 2822 
Q 1591 2972 1913 2972 
Q 2475 2972 2870 2558 
Q 3266 2144 3266 1488 
Q 3266 1056 3080 686 
Q 2894 316 2569 119 
Q 2244 -78 1831 -78 
Q 1128 -78 684 439 
Q 241 956 241 2144 
Q 241 3472 731 4075 
Q 1159 4600 1884 4600 
Q 2425 4600 2770 4297 
Q 3116 3994 3184 3459 
z
M 888 1484 
Q 888 1194 1011 928 
Q 1134 663 1356 523 
Q 1578 384 1822 384 
Q 2178 384 2434 671 
Q 2691 959 2691 1453 
Q 2691 1928 2437 2201 
Q 2184 2475 1800 2475 
Q 1419 2475 1153 2201 
Q 888 1928 888 1484 
z
" transform="scale(0.015625)"/>
       </defs>
       <use xlink:href="#ArialMT-30"/>
       <use xlink:href="#ArialMT-2e" transform="translate(55.615234 0)"/>
       <use xlink:href="#ArialMT-36" transform="translate(83.398438 0)"/>
      </g>
     </g>
    </g>
    <g id="ytick_4">
     <g id="line2d_20">
      <path d="M 748.796 346.085 
C 748.796 313.938684 742.463877 282.10495 730.162014 252.405626 
C 717.860151 222.706303 699.82779 195.718967 677.096912 172.988088 
C 654.366033 150.25721 627.378697 132.224849 597.679374 119.922986 
C 567.98005 107.621123 536.146316 101.289 504 101.289 
C 471.853684 101.289 440.01995 107.621123 410.320626 119.922986 
C 380.621303 132.224849 353.633967 150.25721 330.903088 172.988088 
C 308.17221 195.718967 290.139849 222.706303 277.837986 252.405626 
C 265.536123 282.10495 259.204 313.938684 259.204 346.085 
C 259.204 378.231316 265.536123 410.06505 277.837986 439.764374 
C 290.139849 469.463697 308.17221 496.451033 330.903088 519.181912 
C 353.633967 541.91279 380.621303 559.945151 410.320626 572.247014 
C 440.01995 584.548877 471.853684 590.881 504 590.881 
C 536.146316 590.881 567.98005 584.548877 597.679374 572.247014 
C 627.378697 559.945151 654.366033 541.91279 677.096912 519.181912 
C 699.82779 496.451033 717.860151 469.463697 730.162014 439.764374 
C 742.463877 410.06505 748.796 378.231316 748.796 346.085 
" clip-path="url(#p35d5f4fd30)" style="fill: none; stroke: #ffffff; stroke-linecap: round"/>
     </g>
     <g id="text_20">
      <!-- 0.8 -->
      <g style="fill: #262626" transform="translate(730.162014 250.418126) scale(0.1 -0.1)">
       <defs>
        <path id="ArialMT-38" d="M 1131 2484 
Q 781 2613 612 2850 
Q 444 3088 444 3419 
Q 444 3919 803 4259 
Q 1163 4600 1759 4600 
Q 2359 4600 2725 4251 
Q 3091 3903 3091 3403 
Q 3091 3084 2923 2848 
Q 2756 2613 2416 2484 
Q 2838 2347 3058 2040 
Q 3278 1734 3278 1309 
Q 3278 722 2862 322 
Q 2447 -78 1769 -78 
Q 1091 -78 675 323 
Q 259 725 259 1325 
Q 259 1772 486 2073 
Q 713 2375 1131 2484 
z
M 1019 3438 
Q 1019 3113 1228 2906 
Q 1438 2700 1772 2700 
Q 2097 2700 2305 2904 
Q 2513 3109 2513 3406 
Q 2513 3716 2298 3927 
Q 2084 4138 1766 4138 
Q 1444 4138 1231 3931 
Q 1019 3725 1019 3438 
z
M 838 1322 
Q 838 1081 952 856 
Q 1066 631 1291 507 
Q 1516 384 1775 384 
Q 2178 384 2440 643 
Q 2703 903 2703 1303 
Q 2703 1709 2433 1975 
Q 2163 2241 1756 2241 
Q 1359 2241 1098 1978 
Q 838 1716 838 1322 
z
" transform="scale(0.015625)"/>
       </defs>
       <use xlink:href="#ArialMT-30"/>
       <use xlink:href="#ArialMT-2e" transform="translate(55.615234 0)"/>
       <use xlink:href="#ArialMT-38" transform="translate(83.398438 0)"/>
      </g>
     </g>
    </g>
    <g id="ytick_5">
     <g id="line2d_21">
      <path d="M 809.995 346.085 
C 809.995 305.902105 802.079846 266.109938 786.702518 228.985783 
C 771.325189 191.861629 748.784737 158.127458 720.37114 129.71386 
C 691.957542 101.300263 658.223371 78.759811 621.099217 63.382482 
C 583.975062 48.005154 544.182895 40.09 504 40.09 
C 463.817105 40.09 424.024938 48.005154 386.900783 63.382482 
C 349.776629 78.759811 316.042458 101.300263 287.62886 129.71386 
C 259.215263 158.127458 236.674811 191.861629 221.297482 228.985783 
C 205.920154 266.109938 198.005 305.902105 198.005 346.085 
C 198.005 386.267895 205.920154 426.060062 221.297482 463.184217 
C 236.674811 500.308371 259.215263 534.042542 287.62886 562.45614 
C 316.042458 590.869737 349.776629 613.410189 386.900783 628.787518 
C 424.024938 644.164846 463.817105 652.08 504 652.08 
C 544.182895 652.08 583.975062 644.164846 621.099217 628.787518 
C 658.223371 613.410189 691.957542 590.869737 720.37114 562.45614 
C 748.784737 534.042542 771.325189 500.308371 786.702518 463.184217 
C 802.079846 426.060062 809.995 386.267895 809.995 346.085 
" clip-path="url(#p35d5f4fd30)" style="fill: none; stroke: #ffffff; stroke-linecap: round"/>
     </g>
     <g id="text_21">
      <!-- 1.0 -->
      <g style="fill: #262626" transform="translate(786.702518 226.998283) scale(0.1 -0.1)">
       <defs>
        <path id="ArialMT-31" d="M 2384 0 
L 1822 0 
L 1822 3584 
Q 1619 3391 1289 3197 
Q 959 3003 697 2906 
L 697 3450 
Q 1169 3672 1522 3987 
Q 1875 4303 2022 4600 
L 2384 4600 
L 2384 0 
z
" transform="scale(0.015625)"/>
       </defs>
       <use xlink:href="#ArialMT-31"/>
       <use xlink:href="#ArialMT-2e" transform="translate(55.615234 0)"/>
       <use xlink:href="#ArialMT-30" transform="translate(83.398438 0)"/>
      </g>
     </g>
    </g>
   </g>
   <g id="patch_3">
    <path d="M 748.796 346.085 
L 730.162014 252.405626 
L 677.096912 172.988088 
L 595.080566 126.197063 
L 504 101.289 
L 428.721932 164.347667 
L 382.984989 225.069989 
L 410.069809 307.177841 
L 259.204 346.085 
L 277.837986 439.764374 
L 343.917894 506.167106 
L 439.828882 501.007783 
L 504 561.451973 
L 539.129765 430.895755 
L 675.709917 517.794917 
L 700.104562 427.314169 
z
" clip-path="url(#p35d5f4fd30)" style="fill: #ff6b6b; opacity: 0.25; stroke: #ff6b6b; stroke-width: 0.3; stroke-linejoin: miter"/>
   </g>
   <g id="patch_4">
    <path d="M 703.104439 346.085 
L 710.306653 260.629986 
L 568.911342 281.173658 
L 539.129765 261.274245 
L 504 144.076153 
L 420.357702 144.15463 
L 330.903088 172.988088 
L 315.45566 267.987377 
L 357.799622 346.085 
L 292.540846 433.674249 
L 439.088658 410.996342 
L 410.320626 572.247014 
L 504 570.648544 
L 542.294609 438.536364 
L 598.038226 440.123226 
L 679.795474 418.901869 
z
" clip-path="url(#p35d5f4fd30)" style="fill: #45b7d1; opacity: 0.25; stroke: #45b7d1; stroke-width: 0.3; stroke-linejoin: miter"/>
   </g>
   <g id="patch_5">
    <path d="M 688.220067 346.085 
L 599.211182 306.647237 
L 600.730627 249.354373 
L 591.360704 135.177604 
L 504 194.217348 
L 468.870235 261.274245 
L 353.223903 195.308903 
L 288.097352 256.655195 
L 325.494617 346.085 
L 381.340298 396.892312 
L 370.76093 479.32407 
L 468.870235 430.895755 
L 504 590.881 
L 576.052942 520.036189 
L 629.939099 472.024099 
L 730.162014 439.764374 
z
" clip-path="url(#p35d5f4fd30)" style="fill: #96ceb4; opacity: 0.25; stroke: #96ceb4; stroke-width: 0.3; stroke-linejoin: miter"/>
   </g>
   <g id="patch_6">
    <path d="M 595.7985 346.085 
L 593.065475 309.192872 
L 633.004474 217.080526 
L 597.679374 119.922986 
L 504 174.42829 
L 452.141775 220.888171 
L 345.381455 187.466455 
L 301.206541 262.085199 
L 372.115906 346.085 
L 406.524405 386.460714 
L 424.447002 425.637998 
L 438.988457 503.036749 
L 504 476.843519 
L 572.360624 511.122145 
L 677.096912 519.181912 
L 588.810755 381.214765 
z
" clip-path="url(#p35d5f4fd30)" style="fill: #ffeead; opacity: 0.25; stroke: #ffeead; stroke-width: 0.3; stroke-linejoin: miter"/>
   </g>
   <g id="patch_7">
    <path d="M 625.221096 346.085 
L 588.810755 310.955235 
L 625.731494 224.353506 
L 589.016681 140.836575 
L 504 254.2865 
L 460.506005 241.081208 
L 384.392608 226.477608 
L 277.837986 252.405626 
L 375.228142 346.085 
L 389.929097 393.334715 
L 426.073853 424.011147 
L 467.189385 434.953686 
L 504 549.580036 
L 597.679374 572.247014 
L 657.678989 499.763989 
L 611.556935 390.636541 
z
" clip-path="url(#p35d5f4fd30)" style="fill: #9b59b6; opacity: 0.25; stroke: #9b59b6; stroke-width: 0.3; stroke-linejoin: miter"/>
   </g>
   <g id="patch_8">
    <path d="M 651.874507 346.085 
L 713.852253 259.161351 
L 576.638883 273.446117 
L 552.888159 228.058544 
L 504 173.960305 
L 410.320626 119.922986 
L 439.088658 281.173658 
L 419.189245 310.955235 
L 412.2015 346.085 
L 419.189245 381.214765 
L 330.903088 519.181912 
L 445.338335 487.706788 
L 504 437.8835 
L 542.294609 438.536364 
L 568.911342 410.996342 
L 709.852925 431.352073 
z
" clip-path="url(#p35d5f4fd30)" style="fill: #e67e22; opacity: 0.25; stroke: #e67e22; stroke-width: 0.3; stroke-linejoin: miter"/>
   </g>
   <g id="line2d_22">
    <path d="M 748.796 346.085 
L 730.162014 252.405626 
L 677.096912 172.988088 
L 595.080566 126.197063 
L 504 101.289 
L 428.721932 164.347667 
L 382.984989 225.069989 
L 410.069809 307.177841 
L 259.204 346.085 
L 277.837986 439.764374 
L 343.917894 506.167106 
L 439.828882 501.007783 
L 504 561.451973 
L 539.129765 430.895755 
L 675.709917 517.794917 
L 700.104562 427.314169 
L 748.796 346.085 
" clip-path="url(#p35d5f4fd30)" style="fill: none; stroke: #ff6b6b; stroke-width: 2; stroke-linecap: round"/>
    <defs>
     <path id="m8c70984ded" d="M 0 3.5 
C 0.928211 3.5 1.81853 3.131218 2.474874 2.474874 
C 3.131218 1.81853 3.5 0.928211 3.5 0 
C 3.5 -0.928211 3.131218 -1.81853 2.474874 -2.474874 
C 1.81853 -3.131218 0.928211 -3.5 0 -3.5 
C -0.928211 -3.5 -1.81853 -3.131218 -2.474874 -2.474874 
C -3.131218 -1.81853 -3.5 -0.928211 -3.5 0 
C -3.5 0.928211 -3.131218 1.81853 -2.474874 2.474874 
C -1.81853 3.131218 -0.928211 3.5 0 3.5 
z
"/>
    </defs>
    <g clip-path="url(#p35d5f4fd30)">
     <use xlink:href="#m8c70984ded" x="748.796" y="346.085" style="fill: #ff6b6b"/>
     <use xlink:href="#m8c70984ded" x="730.162014" y="252.405626" style="fill: #ff6b6b"/>
     <use xlink:href="#m8c70984ded" x="677.096912" y="172.988088" style="fill: #ff6b6b"/>
     <use xlink:href="#m8c70984ded" x="595.080566" y="126.197063" style="fill: #ff6b6b"/>
     <use xlink:href="#m8c70984ded" x="504" y="101.289" style="fill: #ff6b6b"/>
     <use xlink:href="#m8c70984ded" x="428.721932" y="164.347667" style="fill: #ff6b6b"/>
     <use xlink:href="#m8c70984ded" x="382.984989" y="225.069989" style="fill: #ff6b6b"/>
     <use xlink:href="#m8c70984ded" x="410.069809" y="307.177841" style="fill: #ff6b6b"/>
     <use xlink:href="#m8c70984ded" x="259.204" y="346.085" style="fill: #ff6b6b"/>
     <use xlink:href="#m8c70984ded" x="277.837986" y="439.764374" style="fill: #ff6b6b"/>
     <use xlink:href="#m8c70984ded" x="343.917894" y="506.167106" style="fill: #ff6b6b"/>
     <use xlink:href="#m8c70984ded" x="439.828882" y="501.007783" style="fill: #ff6b6b"/>
     <use xlink:href="#m8c70984ded" x="504" y="561.451973" style="fill: #ff6b6b"/>
     <use xlink:href="#m8c70984ded" x="539.129765" y="430.895755" style="fill: #ff6b6b"/>
     <use xlink:href="#m8c70984ded" x="675.709917" y="517.794917" style="fill: #ff6b6b"/>
     <use xlink:href="#m8c70984ded" x="700.104562" y="427.314169" style="fill: #ff6b6b"/>
     <use xlink:href="#m8c70984ded" x="748.796" y="346.085" style="fill: #ff6b6b"/>
    </g>
   </g>
   <g id="line2d_23">
    <path d="M 703.104439 346.085 
L 710.306653 260.629986 
L 568.911342 281.173658 
L 539.129765 261.274245 
L 504 144.076153 
L 420.357702 144.15463 
L 330.903088 172.988088 
L 315.45566 267.987377 
L 357.799622 346.085 
L 292.540846 433.674249 
L 439.088658 410.996342 
L 410.320626 572.247014 
L 504 570.648544 
L 542.294609 438.536364 
L 598.038226 440.123226 
L 679.795474 418.901869 
L 703.104439 346.085 
" clip-path="url(#p35d5f4fd30)" style="fill: none; stroke: #45b7d1; stroke-width: 2; stroke-linecap: round"/>
    <defs>
     <path id="m53ee86e525" d="M 0 3.5 
C 0.928211 3.5 1.81853 3.131218 2.474874 2.474874 
C 3.131218 1.81853 3.5 0.928211 3.5 0 
C 3.5 -0.928211 3.131218 -1.81853 2.474874 -2.474874 
C 1.81853 -3.131218 0.928211 -3.5 0 -3.5 
C -0.928211 -3.5 -1.81853 -3.131218 -2.474874 -2.474874 
C -3.131218 -1.81853 -3.5 -0.928211 -3.5 0 
C -3.5 0.928211 -3.131218 1.81853 -2.474874 2.474874 
C -1.81853 3.131218 -0.928211 3.5 0 3.5 
z
"/>
    </defs>
    <g clip-path="url(#p35d5f4fd30)">
     <use xlink:href="#m53ee86e525" x="703.104439" y="346.085" style="fill: #45b7d1"/>
     <use xlink:href="#m53ee86e525" x="710.306653" y="260.629986" style="fill: #45b7d1"/>
     <use xlink:href="#m53ee86e525" x="568.911342" y="281.173658" style="fill: #45b7d1"/>
     <use xlink:href="#m53ee86e525" x="539.129765" y="261.274245" style="fill: #45b7d1"/>
     <use xlink:href="#m53ee86e525" x="504" y="144.076153" style="fill: #45b7d1"/>
     <use xlink:href="#m53ee86e525" x="420.357702" y="144.15463" style="fill: #45b7d1"/>
     <use xlink:href="#m53ee86e525" x="330.903088" y="172.988088" style="fill: #45b7d1"/>
     <use xlink:href="#m53ee86e525" x="315.45566" y="267.987377" style="fill: #45b7d1"/>
     <use xlink:href="#m53ee86e525" x="357.799622" y="346.085" style="fill: #45b7d1"/>
     <use xlink:href="#m53ee86e525" x="292.540846" y="433.674249" style="fill: #45b7d1"/>
     <use xlink:href="#m53ee86e525" x="439.088658" y="410.996342" style="fill: #45b7d1"/>
     <use xlink:href="#m53ee86e525" x="410.320626" y="572.247014" style="fill: #45b7d1"/>
     <use xlink:href="#m53ee86e525" x="504" y="570.648544" style="fill: #45b7d1"/>
     <use xlink:href="#m53ee86e525" x="542.294609" y="438.536364" style="fill: #45b7d1"/>
     <use xlink:href="#m53ee86e525" x="598.038226" y="440.123226" style="fill: #45b7d1"/>
     <use xlink:href="#m53ee86e525" x="679.795474" y="418.901869" style="fill: #45b7d1"/>
     <use xlink:href="#m53ee86e525" x="703.104439" y="346.085" style="fill: #45b7d1"/>
    </g>
   </g>
   <g id="line2d_24">
    <path d="M 688.220067 346.085 
L 599.211182 306.647237 
L 600.730627 249.354373 
L 591.360704 135.177604 
L 504 194.217348 
L 468.870235 261.274245 
L 353.223903 195.308903 
L 288.097352 256.655195 
L 325.494617 346.085 
L 381.340298 396.892312 
L 370.76093 479.32407 
L 468.870235 430.895755 
L 504 590.881 
L 576.052942 520.036189 
L 629.939099 472.024099 
L 730.162014 439.764374 
L 688.220067 346.085 
" clip-path="url(#p35d5f4fd30)" style="fill: none; stroke: #96ceb4; stroke-width: 2; stroke-linecap: round"/>
    <defs>
     <path id="m8d430f9fcf" d="M 0 3.5 
C 0.928211 3.5 1.81853 3.131218 2.474874 2.474874 
C 3.131218 1.81853 3.5 0.928211 3.5 0 
C 3.5 -0.928211 3.131218 -1.81853 2.474874 -2.474874 
C 1.81853 -3.131218 0.928211 -3.5 0 -3.5 
C -0.928211 -3.5 -1.81853 -3.131218 -2.474874 -2.474874 
C -3.131218 -1.81853 -3.5 -0.928211 -3.5 0 
C -3.5 0.928211 -3.131218 1.81853 -2.474874 2.474874 
C -1.81853 3.131218 -0.928211 3.5 0 3.5 
z
"/>
    </defs>
    <g clip-path="url(#p35d5f4fd30)">
     <use xlink:href="#m8d430f9fcf" x="688.220067" y="346.085" style="fill: #96ceb4"/>
     <use xlink:href="#m8d430f9fcf" x="599.211182" y="306.647237" style="fill: #96ceb4"/>
     <use xlink:href="#m8d430f9fcf" x="600.730627" y="249.354373" style="fill: #96ceb4"/>
     <use xlink:href="#m8d430f9fcf" x="591.360704" y="135.177604" style="fill: #96ceb4"/>
     <use xlink:href="#m8d430f9fcf" x="504" y="194.217348" style="fill: #96ceb4"/>
     <use xlink:href="#m8d430f9fcf" x="468.870235" y="261.274245" style="fill: #96ceb4"/>
     <use xlink:href="#m8d430f9fcf" x="353.223903" y="195.308903" style="fill: #96ceb4"/>
     <use xlink:href="#m8d430f9fcf" x="288.097352" y="256.655195" style="fill: #96ceb4"/>
     <use xlink:href="#m8d430f9fcf" x="325.494617" y="346.085" style="fill: #96ceb4"/>
     <use xlink:href="#m8d430f9fcf" x="381.340298" y="396.892312" style="fill: #96ceb4"/>
     <use xlink:href="#m8d430f9fcf" x="370.76093" y="479.32407" style="fill: #96ceb4"/>
     <use xlink:href="#m8d430f9fcf" x="468.870235" y="430.895755" style="fill: #96ceb4"/>
     <use xlink:href="#m8d430f9fcf" x="504" y="590.881" style="fill: #96ceb4"/>
     <use xlink:href="#m8d430f9fcf" x="576.052942" y="520.036189" style="fill: #96ceb4"/>
     <use xlink:href="#m8d430f9fcf" x="629.939099" y="472.024099" style="fill: #96ceb4"/>
     <use xlink:href="#m8d430f9fcf" x="730.162014" y="439.764374" style="fill: #96ceb4"/>
     <use xlink:href="#m8d430f9fcf" x="688.220067" y="346.085" style="fill: #96ceb4"/>
    </g>
   </g>
   <g id="line2d_25">
    <path d="M 595.7985 346.085 
L 593.065475 309.192872 
L 633.004474 217.080526 
L 597.679374 119.922986 
L 504 174.42829 
L 452.141775 220.888171 
L 345.381455 187.466455 
L 301.206541 262.085199 
L 372.115906 346.085 
L 406.524405 386.460714 
L 424.447002 425.637998 
L 438.988457 503.036749 
L 504 476.843519 
L 572.360624 511.122145 
L 677.096912 519.181912 
L 588.810755 381.214765 
L 595.7985 346.085 
" clip-path="url(#p35d5f4fd30)" style="fill: none; stroke: #ffeead; stroke-width: 2; stroke-linecap: round"/>
    <defs>
     <path id="mb97edbba92" d="M 0 3.5 
C 0.928211 3.5 1.81853 3.131218 2.474874 2.474874 
C 3.131218 1.81853 3.5 0.928211 3.5 0 
C 3.5 -0.928211 3.131218 -1.81853 2.474874 -2.474874 
C 1.81853 -3.131218 0.928211 -3.5 0 -3.5 
C -0.928211 -3.5 -1.81853 -3.131218 -2.474874 -2.474874 
C -3.131218 -1.81853 -3.5 -0.928211 -3.5 0 
C -3.5 0.928211 -3.131218 1.81853 -2.474874 2.474874 
C -1.81853 3.131218 -0.928211 3.5 0 3.5 
z
"/>
    </defs>
    <g clip-path="url(#p35d5f4fd30)">
     <use xlink:href="#mb97edbba92" x="595.7985" y="346.085" style="fill: #ffeead"/>
     <use xlink:href="#mb97edbba92" x="593.065475" y="309.192872" style="fill: #ffeead"/>
     <use xlink:href="#mb97edbba92" x="633.004474" y="217.080526" style="fill: #ffeead"/>
     <use xlink:href="#mb97edbba92" x="597.679374" y="119.922986" style="fill: #ffeead"/>
     <use xlink:href="#mb97edbba92" x="504" y="174.42829" style="fill: #ffeead"/>
     <use xlink:href="#mb97edbba92" x="452.141775" y="220.888171" style="fill: #ffeead"/>
     <use xlink:href="#mb97edbba92" x="345.381455" y="187.466455" style="fill: #ffeead"/>
     <use xlink:href="#mb97edbba92" x="301.206541" y="262.085199" style="fill: #ffeead"/>
     <use xlink:href="#mb97edbba92" x="372.115906" y="346.085" style="fill: #ffeead"/>
     <use xlink:href="#mb97edbba92" x="406.524405" y="386.460714" style="fill: #ffeead"/>
     <use xlink:href="#mb97edbba92" x="424.447002" y="425.637998" style="fill: #ffeead"/>
     <use xlink:href="#mb97edbba92" x="438.988457" y="503.036749" style="fill: #ffeead"/>
     <use xlink:href="#mb97edbba92" x="504" y="476.843519" style="fill: #ffeead"/>
     <use xlink:href="#mb97edbba92" x="572.360624" y="511.122145" style="fill: #ffeead"/>
     <use xlink:href="#mb97edbba92" x="677.096912" y="519.181912" style="fill: #ffeead"/>
     <use xlink:href="#mb97edbba92" x="588.810755" y="381.214765" style="fill: #ffeead"/>
     <use xlink:href="#mb97edbba92" x="595.7985" y="346.085" style="fill: #ffeead"/>
    </g>
   </g>
   <g id="line2d_26">
    <path d="M 625.221096 346.085 
L 588.810755 310.955235 
L 625.731494 224.353506 
L 589.016681 140.836575 
L 504 254.2865 
L 460.506005 241.081208 
L 384.392608 226.477608 
L 277.837986 252.405626 
L 375.228142 346.085 
L 389.929097 393.334715 
L 426.073853 424.011147 
L 467.189385 434.953686 
L 504 549.580036 
L 597.679374 572.247014 
L 657.678989 499.763989 
L 611.556935 390.636541 
L 625.221096 346.085 
" clip-path="url(#p35d5f4fd30)" style="fill: none; stroke: #9b59b6; stroke-width: 2; stroke-linecap: round"/>
    <defs>
     <path id="m8ed5d29c6a" d="M 0 3.5 
C 0.928211 3.5 1.81853 3.131218 2.474874 2.474874 
C 3.131218 1.81853 3.5 0.928211 3.5 0 
C 3.5 -0.928211 3.131218 -1.81853 2.474874 -2.474874 
C 1.81853 -3.131218 0.928211 -3.5 0 -3.5 
C -0.928211 -3.5 -1.81853 -3.131218 -2.474874 -2.474874 
C -3.131218 -1.81853 -3.5 -0.928211 -3.5 0 
C -3.5 0.928211 -3.131218 1.81853 -2.474874 2.474874 
C -1.81853 3.131218 -0.928211 3.5 0 3.5 
z
"/>
    </defs>
    <g clip-path="url(#p35d5f4fd30)">
     <use xlink:href="#m8ed5d29c6a" x="625.221096" y="346.085" style="fill: #9b59b6"/>
     <use xlink:href="#m8ed5d29c6a" x="588.810755" y="310.955235" style="fill: #9b59b6"/>
     <use xlink:href="#m8ed5d29c6a" x="625.731494" y="224.353506" style="fill: #9b59b6"/>
     <use xlink:href="#m8ed5d29c6a" x="589.016681" y="140.836575" style="fill: #9b59b6"/>
     <use xlink:href="#m8ed5d29c6a" x="504" y="254.2865" style="fill: #9b59b6"/>
     <use xlink:href="#m8ed5d29c6a" x="460.506005" y="241.081208" style="fill: #9b59b6"/>
     <use xlink:href="#m8ed5d29c6a" x="384.392608" y="226.477608" style="fill: #9b59b6"/>
     <use xlink:href="#m8ed5d29c6a" x="277.837986" y="252.405626" style="fill: #9b59b6"/>
     <use xlink:href="#m8ed5d29c6a" x="375.228142" y="346.085" style="fill: #9b59b6"/>
     <use xlink:href="#m8ed5d29c6a" x="389.929097" y="393.334715" style="fill: #9b59b6"/>
     <use xlink:href="#m8ed5d29c6a" x="426.073853" y="424.011147" style="fill: #9b59b6"/>
     <use xlink:href="#m8ed5d29c6a" x="467.189385" y="434.953686" style="fill: #9b59b6"/>
     <use xlink:href="#m8ed5d29c6a" x="504" y="549.580036" style="fill: #9b59b6"/>
     <use xlink:href="#m8ed5d29c6a" x="597.679374" y="572.247014" style="fill: #9b59b6"/>
     <use xlink:href="#m8ed5d29c6a" x="657.678989" y="499.763989" style="fill: #9b59b6"/>
     <use xlink:href="#m8ed5d29c6a" x="611.556935" y="390.636541" style="fill: #9b59b6"/>
     <use xlink:href="#m8ed5d29c6a" x="625.221096" y="346.085" style="fill: #9b59b6"/>
    </g>
   </g>
   <g id="line2d_27">
    <path d="M 651.874507 346.085 
L 713.852253 259.161351 
L 576.638883 273.446117 
L 552.888159 228.058544 
L 504 173.960305 
L 410.320626 119.922986 
L 439.088658 281.173658 
L 419.189245 310.955235 
L 412.2015 346.085 
L 419.189245 381.214765 
L 330.903088 519.181912 
L 445.338335 487.706788 
L 504 437.8835 
L 542.294609 438.536364 
L 568.911342 410.996342 
L 709.852925 431.352073 
L 651.874507 346.085 
" clip-path="url(#p35d5f4fd30)" style="fill: none; stroke: #e67e22; stroke-width: 2; stroke-linecap: round"/>
    <defs>
     <path id="m4934b35427" d="M 0 3.5 
C 0.928211 3.5 1.81853 3.131218 2.474874 2.474874 
C 3.131218 1.81853 3.5 0.928211 3.5 0 
C 3.5 -0.928211 3.131218 -1.81853 2.474874 -2.474874 
C 1.81853 -3.131218 0.928211 -3.5 0 -3.5 
C -0.928211 -3.5 -1.81853 -3.131218 -2.474874 -2.474874 
C -3.131218 -1.81853 -3.5 -0.928211 -3.5 0 
C -3.5 0.928211 -3.131218 1.81853 -2.474874 2.474874 
C -1.81853 3.131218 -0.928211 3.5 0 3.5 
z
"/>
    </defs>
    <g clip-path="url(#p35d5f4fd30)">
     <use xlink:href="#m4934b35427" x="651.874507" y="346.085" style="fill: #e67e22"/>
     <use xlink:href="#m4934b35427" x="713.852253" y="259.161351" style="fill: #e67e22"/>
     <use xlink:href="#m4934b35427" x="576.638883" y="273.446117" style="fill: #e67e22"/>
     <use xlink:href="#m4934b35427" x="552.888159" y="228.058544" style="fill: #e67e22"/>
     <use xlink:href="#m4934b35427" x="504" y="173.960305" style="fill: #e67e22"/>
     <use xlink:href="#m4934b35427" x="410.320626" y="119.922986" style="fill: #e67e22"/>
     <use xlink:href="#m4934b35427" x="439.088658" y="281.173658" style="fill: #e67e22"/>
     <use xlink:href="#m4934b35427" x="419.189245" y="310.955235" style="fill: #e67e22"/>
     <use xlink:href="#m4934b35427" x="412.2015" y="346.085" style="fill: #e67e22"/>
     <use xlink:href="#m4934b35427" x="419.189245" y="381.214765" style="fill: #e67e22"/>
     <use xlink:href="#m4934b35427" x="330.903088" y="519.181912" style="fill: #e67e22"/>
     <use xlink:href="#m4934b35427" x="445.338335" y="487.706788" style="fill: #e67e22"/>
     <use xlink:href="#m4934b35427" x="504" y="437.8835" style="fill: #e67e22"/>
     <use xlink:href="#m4934b35427" x="542.294609" y="438.536364" style="fill: #e67e22"/>
     <use xlink:href="#m4934b35427" x="568.911342" y="410.996342" style="fill: #e67e22"/>
     <use xlink:href="#m4934b35427" x="709.852925" y="431.352073" style="fill: #e67e22"/>
     <use xlink:href="#m4934b35427" x="651.874507" y="346.085" style="fill: #e67e22"/>
    </g>
   </g>
   <g id="patch_9">
    <path d="M 809.995 346.085 
C 809.995 305.902105 802.079846 266.109938 786.702518 228.985783 
C 771.325189 191.861629 748.784737 158.127458 720.37114 129.71386 
C 691.957542 101.300263 658.223371 78.759811 621.099217 63.382482 
C 583.975062 48.005154 544.182895 40.09 504 40.09 
C 463.817105 40.09 424.024938 48.005154 386.900783 63.382482 
C 349.776629 78.759811 316.042458 101.300263 287.62886 129.71386 
C 259.215263 158.127458 236.674811 191.861629 221.297482 228.985783 
C 205.920154 266.109938 198.005 305.902105 198.005 346.085 
C 198.005 386.267895 205.920154 426.060062 221.297482 463.184217 
C 236.674811 500.308371 259.215263 534.042542 287.62886 562.45614 
C 316.042458 590.869737 349.776629 613.410189 386.900783 628.787518 
C 424.024938 644.164846 463.817105 652.08 504 652.08 
C 544.182895 652.08 583.975062 644.164846 621.099217 628.787518 
C 658.223371 613.410189 691.957542 590.869737 720.37114 562.45614 
C 748.784737 534.042542 771.325189 500.308371 786.702518 463.184217 
C 802.079846 426.060062 809.995 386.267895 809.995 346.085 
" style="fill: none"/>
   </g>
   <g id="legend_1">
    <g id="line2d_28">
     <path d="M 196.833 606.070375 
L 208.833 606.070375 
L 220.833 606.070375 
" style="fill: none; stroke: #ff6b6b; stroke-width: 2; stroke-linecap: round"/>
     <g>
      <use xlink:href="#m8c70984ded" x="208.833" y="606.070375" style="fill: #ff6b6b"/>
     </g>
    </g>
    <g id="text_22">
     <!-- LanDiff -->
     <g style="fill: #262626" transform="translate(230.433 610.270375) scale(0.12 -0.12)">
      <defs>
       <path id="ArialMT-4c" d="M 469 0 
L 469 4581 
L 1075 4581 
L 1075 541 
L 3331 541 
L 3331 0 
L 469 0 
z
" transform="scale(0.015625)"/>
       <path id="ArialMT-44" d="M 494 0 
L 494 4581 
L 2072 4581 
Q 2606 4581 2888 4516 
Q 3281 4425 3559 4188 
Q 3922 3881 4101 3404 
Q 4281 2928 4281 2316 
Q 4281 1794 4159 1391 
Q 4038 988 3847 723 
Q 3656 459 3429 307 
Q 3203 156 2883 78 
Q 2563 0 2147 0 
L 494 0 
z
M 1100 541 
L 2078 541 
Q 2531 541 2789 625 
Q 3047 709 3200 863 
Q 3416 1078 3536 1442 
Q 3656 1806 3656 2325 
Q 3656 3044 3420 3430 
Q 3184 3816 2847 3947 
Q 2603 4041 2063 4041 
L 1100 4041 
L 1100 541 
z
" transform="scale(0.015625)"/>
      </defs>
      <use xlink:href="#ArialMT-4c"/>
      <use xlink:href="#ArialMT-61" transform="translate(55.615234 0)"/>
      <use xlink:href="#ArialMT-6e" transform="translate(111.230469 0)"/>
      <use xlink:href="#ArialMT-44" transform="translate(166.845703 0)"/>
      <use xlink:href="#ArialMT-69" transform="translate(239.0625 0)"/>
      <use xlink:href="#ArialMT-66" transform="translate(261.279297 0)"/>
      <use xlink:href="#ArialMT-66" transform="translate(287.3125 0)"/>
     </g>
    </g>
    <g id="line2d_29">
     <path d="M 196.833 623.04475 
L 208.833 623.04475 
L 220.833 623.04475 
" style="fill: none; stroke: #45b7d1; stroke-width: 2; stroke-linecap: round"/>
     <g>
      <use xlink:href="#m53ee86e525" x="208.833" y="623.04475" style="fill: #45b7d1"/>
     </g>
    </g>
    <g id="text_23">
     <!-- Sora -->
     <g style="fill: #262626" transform="translate(230.433 627.24475) scale(0.12 -0.12)">
      <defs>
       <path id="ArialMT-53" d="M 288 1472 
L 859 1522 
Q 900 1178 1048 958 
Q 1197 738 1509 602 
Q 1822 466 2213 466 
Q 2559 466 2825 569 
Q 3091 672 3220 851 
Q 3350 1031 3350 1244 
Q 3350 1459 3225 1620 
Q 3100 1781 2813 1891 
Q 2628 1963 1997 2114 
Q 1366 2266 1113 2400 
Q 784 2572 623 2826 
Q 463 3081 463 3397 
Q 463 3744 659 4045 
Q 856 4347 1234 4503 
Q 1613 4659 2075 4659 
Q 2584 4659 2973 4495 
Q 3363 4331 3572 4012 
Q 3781 3694 3797 3291 
L 3216 3247 
Q 3169 3681 2898 3903 
Q 2628 4125 2100 4125 
Q 1550 4125 1298 3923 
Q 1047 3722 1047 3438 
Q 1047 3191 1225 3031 
Q 1400 2872 2139 2705 
Q 2878 2538 3153 2413 
Q 3553 2228 3743 1945 
Q 3934 1663 3934 1294 
Q 3934 928 3725 604 
Q 3516 281 3123 101 
Q 2731 -78 2241 -78 
Q 1619 -78 1198 103 
Q 778 284 539 648 
Q 300 1013 288 1472 
z
" transform="scale(0.015625)"/>
      </defs>
      <use xlink:href="#ArialMT-53"/>
      <use xlink:href="#ArialMT-6f" transform="translate(66.699219 0)"/>
      <use xlink:href="#ArialMT-72" transform="translate(122.314453 0)"/>
      <use xlink:href="#ArialMT-61" transform="translate(155.615234 0)"/>
     </g>
    </g>
    <g id="line2d_30">
     <path d="M 196.833 640.019125 
L 208.833 640.019125 
L 220.833 640.019125 
" style="fill: none; stroke: #96ceb4; stroke-width: 2; stroke-linecap: round"/>
     <g>
      <use xlink:href="#m8d430f9fcf" x="208.833" y="640.019125" style="fill: #96ceb4"/>
     </g>
    </g>
    <g id="text_24">
     <!-- Hailuo -->
     <g style="fill: #262626" transform="translate(230.433 644.219125) scale(0.12 -0.12)">
      <defs>
       <path id="ArialMT-48" d="M 513 0 
L 513 4581 
L 1119 4581 
L 1119 2700 
L 3500 2700 
L 3500 4581 
L 4106 4581 
L 4106 0 
L 3500 0 
L 3500 2159 
L 1119 2159 
L 1119 0 
L 513 0 
z
" transform="scale(0.015625)"/>
      </defs>
      <use xlink:href="#ArialMT-48"/>
      <use xlink:href="#ArialMT-61" transform="translate(72.216797 0)"/>
      <use xlink:href="#ArialMT-69" transform="translate(127.832031 0)"/>
      <use xlink:href="#ArialMT-6c" transform="translate(150.048828 0)"/>
      <use xlink:href="#ArialMT-75" transform="translate(172.265625 0)"/>
      <use xlink:href="#ArialMT-6f" transform="translate(227.880859 0)"/>
     </g>
    </g>
    <g id="line2d_31">
     <path d="M 196.833 656.9935 
L 208.833 656.9935 
L 220.833 656.9935 
" style="fill: none; stroke: #ffeead; stroke-width: 2; stroke-linecap: round"/>
     <g>
      <use xlink:href="#mb97edbba92" x="208.833" y="656.9935" style="fill: #ffeead"/>
     </g>
    </g>
    <g id="text_25">
     <!-- HunyuanVideo -->
     <g style="fill: #262626" transform="translate(230.433 661.1935) scale(0.12 -0.12)">
      <defs>
       <path id="ArialMT-56" d="M 1803 0 
L 28 4581 
L 684 4581 
L 1875 1253 
Q 2019 853 2116 503 
Q 2222 878 2363 1253 
L 3600 4581 
L 4219 4581 
L 2425 0 
L 1803 0 
z
" transform="scale(0.015625)"/>
      </defs>
      <use xlink:href="#ArialMT-48"/>
      <use xlink:href="#ArialMT-75" transform="translate(72.216797 0)"/>
      <use xlink:href="#ArialMT-6e" transform="translate(127.832031 0)"/>
      <use xlink:href="#ArialMT-79" transform="translate(183.447266 0)"/>
      <use xlink:href="#ArialMT-75" transform="translate(233.447266 0)"/>
      <use xlink:href="#ArialMT-61" transform="translate(289.0625 0)"/>
      <use xlink:href="#ArialMT-6e" transform="translate(344.677734 0)"/>
      <use xlink:href="#ArialMT-56" transform="translate(400.292969 0)"/>
      <use xlink:href="#ArialMT-69" transform="translate(465.242188 0)"/>
      <use xlink:href="#ArialMT-64" transform="translate(487.458984 0)"/>
      <use xlink:href="#ArialMT-65" transform="translate(543.074219 0)"/>
      <use xlink:href="#ArialMT-6f" transform="translate(598.689453 0)"/>
     </g>
    </g>
    <g id="line2d_32">
     <path d="M 196.833 674.1085 
L 208.833 674.1085 
L 220.833 674.1085 
" style="fill: none; stroke: #9b59b6; stroke-width: 2; stroke-linecap: round"/>
     <g>
      <use xlink:href="#m8ed5d29c6a" x="208.833" y="674.1085" style="fill: #9b59b6"/>
     </g>
    </g>
    <g id="text_26">
     <!-- Kling -->
     <g style="fill: #262626" transform="translate(230.433 678.3085) scale(0.12 -0.12)">
      <defs>
       <path id="ArialMT-4b" d="M 469 0 
L 469 4581 
L 1075 4581 
L 1075 2309 
L 3350 4581 
L 4172 4581 
L 2250 2725 
L 4256 0 
L 3456 0 
L 1825 2319 
L 1075 1588 
L 1075 0 
L 469 0 
z
" transform="scale(0.015625)"/>
      </defs>
      <use xlink:href="#ArialMT-4b"/>
      <use xlink:href="#ArialMT-6c" transform="translate(66.699219 0)"/>
      <use xlink:href="#ArialMT-69" transform="translate(88.916016 0)"/>
      <use xlink:href="#ArialMT-6e" transform="translate(111.132812 0)"/>
      <use xlink:href="#ArialMT-67" transform="translate(166.748047 0)"/>
     </g>
    </g>
    <g id="line2d_33">
     <path d="M 196.833 691.36975 
L 208.833 691.36975 
L 220.833 691.36975 
" style="fill: none; stroke: #e67e22; stroke-width: 2; stroke-linecap: round"/>
     <g>
      <use xlink:href="#m4934b35427" x="208.833" y="691.36975" style="fill: #e67e22"/>
     </g>
    </g>
    <g id="text_27">
     <!-- CogVideoX-5B -->
     <g style="fill: #262626" transform="translate(230.433 695.56975) scale(0.12 -0.12)">
      <defs>
       <path id="ArialMT-43" d="M 3763 1606 
L 4369 1453 
Q 4178 706 3683 314 
Q 3188 -78 2472 -78 
Q 1731 -78 1267 223 
Q 803 525 561 1097 
Q 319 1669 319 2325 
Q 319 3041 592 3573 
Q 866 4106 1370 4382 
Q 1875 4659 2481 4659 
Q 3169 4659 3637 4309 
Q 4106 3959 4291 3325 
L 3694 3184 
Q 3534 3684 3231 3912 
Q 2928 4141 2469 4141 
Q 1941 4141 1586 3887 
Q 1231 3634 1087 3207 
Q 944 2781 944 2328 
Q 944 1744 1114 1308 
Q 1284 872 1643 656 
Q 2003 441 2422 441 
Q 2931 441 3284 734 
Q 3638 1028 3763 1606 
z
" transform="scale(0.015625)"/>
       <path id="ArialMT-58" d="M 28 0 
L 1800 2388 
L 238 4581 
L 959 4581 
L 1791 3406 
Q 2050 3041 2159 2844 
Q 2313 3094 2522 3366 
L 3444 4581 
L 4103 4581 
L 2494 2422 
L 4228 0 
L 3478 0 
L 2325 1634 
Q 2228 1775 2125 1941 
Q 1972 1691 1906 1597 
L 756 0 
L 28 0 
z
" transform="scale(0.015625)"/>
       <path id="ArialMT-2d" d="M 203 1375 
L 203 1941 
L 1931 1941 
L 1931 1375 
L 203 1375 
z
" transform="scale(0.015625)"/>
       <path id="ArialMT-35" d="M 266 1200 
L 856 1250 
Q 922 819 1161 601 
Q 1400 384 1738 384 
Q 2144 384 2425 690 
Q 2706 997 2706 1503 
Q 2706 1984 2436 2262 
Q 2166 2541 1728 2541 
Q 1456 2541 1237 2417 
Q 1019 2294 894 2097 
L 366 2166 
L 809 4519 
L 3088 4519 
L 3088 3981 
L 1259 3981 
L 1013 2750 
Q 1425 3038 1878 3038 
Q 2478 3038 2890 2622 
Q 3303 2206 3303 1553 
Q 3303 931 2941 478 
Q 2500 -78 1738 -78 
Q 1113 -78 717 272 
Q 322 622 266 1200 
z
" transform="scale(0.015625)"/>
       <path id="ArialMT-42" d="M 469 0 
L 469 4581 
L 2188 4581 
Q 2713 4581 3030 4442 
Q 3347 4303 3526 4014 
Q 3706 3725 3706 3409 
Q 3706 3116 3547 2856 
Q 3388 2597 3066 2438 
Q 3481 2316 3704 2022 
Q 3928 1728 3928 1328 
Q 3928 1006 3792 729 
Q 3656 453 3456 303 
Q 3256 153 2954 76 
Q 2653 0 2216 0 
L 469 0 
z
M 1075 2656 
L 2066 2656 
Q 2469 2656 2644 2709 
Q 2875 2778 2992 2937 
Q 3109 3097 3109 3338 
Q 3109 3566 3000 3739 
Q 2891 3913 2687 3977 
Q 2484 4041 1991 4041 
L 1075 4041 
L 1075 2656 
z
M 1075 541 
L 2216 541 
Q 2509 541 2628 563 
Q 2838 600 2978 687 
Q 3119 775 3209 942 
Q 3300 1109 3300 1328 
Q 3300 1584 3169 1773 
Q 3038 1963 2805 2039 
Q 2572 2116 2134 2116 
L 1075 2116 
L 1075 541 
z
" transform="scale(0.015625)"/>
      </defs>
      <use xlink:href="#ArialMT-43"/>
      <use xlink:href="#ArialMT-6f" transform="translate(72.216797 0)"/>
      <use xlink:href="#ArialMT-67" transform="translate(127.832031 0)"/>
      <use xlink:href="#ArialMT-56" transform="translate(183.447266 0)"/>
      <use xlink:href="#ArialMT-69" transform="translate(248.396484 0)"/>
      <use xlink:href="#ArialMT-64" transform="translate(270.613281 0)"/>
      <use xlink:href="#ArialMT-65" transform="translate(326.228516 0)"/>
      <use xlink:href="#ArialMT-6f" transform="translate(381.84375 0)"/>
      <use xlink:href="#ArialMT-58" transform="translate(437.458984 0)"/>
      <use xlink:href="#ArialMT-2d" transform="translate(504.158203 0)"/>
      <use xlink:href="#ArialMT-35" transform="translate(537.458984 0)"/>
      <use xlink:href="#ArialMT-42" transform="translate(593.074219 0)"/>
     </g>
    </g>
   </g>
  </g>
 </g>
 <defs>
  <clipPath id="p35d5f4fd30">
   <path d="M 809.995 346.085 
C 809.995 305.902105 802.079846 266.109938 786.702518 228.985783 
C 771.325189 191.861629 748.784737 158.127458 720.37114 129.71386 
C 691.957542 101.300263 658.223371 78.759811 621.099217 63.382482 
C 583.975062 48.005154 544.182895 40.09 504 40.09 
C 463.817105 40.09 424.024938 48.005154 386.900783 63.382482 
C 349.776629 78.759811 316.042458 101.300263 287.62886 129.71386 
C 259.215263 158.127458 236.674811 191.861629 221.297482 228.985783 
C 205.920154 266.109938 198.005 305.902105 198.005 346.085 
C 198.005 386.267895 205.920154 426.060062 221.297482 463.184217 
C 236.674811 500.308371 259.215263 534.042542 287.62886 562.45614 
C 316.042458 590.869737 349.776629 613.410189 386.900783 628.787518 
C 424.024938 644.164846 463.817105 652.08 504 652.08 
C 544.182895 652.08 583.975062 644.164846 621.099217 628.787518 
C 658.223371 613.410189 691.957542 590.869737 720.37114 562.45614 
C 748.784737 534.042542 771.325189 500.308371 786.702518 463.184217 
C 802.079846 426.060062 809.995 386.267895 809.995 346.085 
M 504 346.085 
C 504 346.085 504 346.085 504 346.085 
C 504 346.085 504 346.085 504 346.085 
C 504 346.085 504 346.085 504 346.085 
C 504 346.085 504 346.085 504 346.085 
C 504 346.085 504 346.085 504 346.085 
C 504 346.085 504 346.085 504 346.085 
C 504 346.085 504 346.085 504 346.085 
C 504 346.085 504 346.085 504 346.085 
C 504 346.085 504 346.085 504 346.085 
C 504 346.085 504 346.085 504 346.085 
C 504 346.085 504 346.085 504 346.085 
C 504 346.085 504 346.085 504 346.085 
C 504 346.085 504 346.085 504 346.085 
C 504 346.085 504 346.085 504 346.085 
C 504 346.085 504 346.085 504 346.085 
C 504 346.085 504 346.085 504 346.085 
z
"/>
  </clipPath>
 </defs>
</svg>
